<svg width="675" height="678" viewBox="0 0 675 678" fill="none" xmlns="http://www.w3.org/2000/svg">
<path d="M15.4492 648.031H663.805" stroke="#263238" stroke-linecap="round" stroke-linejoin="round"/>
<g opacity="0.3">
<path opacity="0.3" d="M217.728 21.191C217.728 21.191 215.39 4.23618 200.185 1.30997C184.981 -1.61623 179.716 8.32427 177.966 17.6767C176.216 27.0291 169.188 24.1172 162.188 21.7791C155.188 19.441 145.821 24.6479 141.719 33.4696C137.616 42.2912 137.63 43.4101 125.94 42.2482C114.25 41.0863 110.735 41.6601 107.293 48.6744C103.85 55.6887 104.065 54.8137 104.065 54.8137H252.527C252.527 54.8137 253.345 39.365 246.388 34.1007C239.431 28.8364 229.433 34.6888 224.169 31.7626C218.905 28.8364 217.728 21.191 217.728 21.191Z" stroke="black" stroke-miterlimit="10"/>
</g>
<g opacity="0.3">
<path opacity="0.3" d="M514.84 65.6579C514.84 65.6579 513.65 56.9653 505.847 55.4735C498.043 53.9818 495.361 59.0739 494.457 63.8649C493.554 68.6558 490.025 67.0923 486.367 65.9017C482.709 64.7112 477.976 67.3362 475.882 71.8976C473.787 76.459 473.787 76.9898 467.792 76.3873C461.796 75.7849 459.988 76.1004 458.195 79.6865C456.402 83.2725 456.546 82.8422 456.546 82.8422H532.67C532.67 82.8422 533.129 74.8955 529.529 72.1988C525.928 69.5021 520.836 72.5001 518.14 70.9939C515.443 69.4878 514.84 65.6579 514.84 65.6579Z" stroke="black" stroke-miterlimit="10"/>
</g>
<g opacity="0.3">
<path opacity="0.3" d="M217.267 183.624C217.267 183.624 216.076 174.932 208.287 173.426C200.499 171.919 197.788 177.026 196.898 181.831C196.009 186.637 192.394 185.116 188.794 183.925C185.193 182.735 180.402 185.36 178.308 189.921C176.214 194.483 176.214 195.014 170.218 194.411C164.222 193.809 162.429 194.11 160.622 197.71C158.814 201.311 158.972 200.852 158.972 200.852H235.111C235.111 200.852 235.556 192.919 231.955 190.223C228.355 187.526 223.263 190.509 220.566 189.018C217.869 187.526 217.267 183.624 217.267 183.624Z" stroke="black" stroke-miterlimit="10"/>
</g>
<g opacity="0.3">
<path opacity="0.3" d="M620.149 266.476C620.149 266.476 618.944 257.784 611.155 256.277C603.366 254.771 600.67 259.878 599.766 264.669C598.862 269.46 595.276 267.968 591.676 266.763C588.075 265.558 583.284 268.269 581.19 272.759C579.096 277.249 579.082 277.865 573.086 277.263C567.09 276.661 565.297 276.962 563.504 280.562C561.711 284.163 561.854 283.704 561.854 283.704H637.979C637.979 283.704 638.438 275.757 634.837 273.06C631.237 270.363 626.145 273.361 623.448 271.87C620.751 270.378 620.149 266.476 620.149 266.476Z" stroke="black" stroke-miterlimit="10"/>
</g>
<g opacity="0.3">
<path opacity="0.3" d="M112.57 275.255C112.57 275.255 110.361 259.304 96.017 256.435C81.6729 253.566 76.6955 263.062 75.0315 271.884C73.3676 280.706 66.7549 277.966 60.1279 275.757C53.5009 273.548 44.6649 278.511 40.8064 286.802C36.9478 295.093 36.9334 296.183 25.9028 295.078C14.8721 293.974 11.5586 294.519 8.23076 301.146C4.90292 307.773 5.1898 306.884 5.1898 306.884H145.418C145.418 306.884 146.25 292.253 139.681 287.29C133.111 282.326 123.673 287.849 118.71 285.081C113.746 282.312 112.57 275.255 112.57 275.255Z" stroke="black" stroke-miterlimit="10"/>
</g>
<g opacity="0.3">
<path opacity="0.3" d="M609.885 157.202H528.367V241.331H609.885V157.202Z" stroke="black" stroke-linecap="round" stroke-linejoin="round"/>
<path opacity="0.3" d="M602.944 170.212H535.297V180.626H602.944V170.212Z" stroke="black" stroke-linecap="round" stroke-linejoin="round"/>
<path opacity="0.3" d="M547.116 196.19H535.297V208.009H547.116V196.19Z" stroke="black" stroke-linecap="round" stroke-linejoin="round"/>
<path opacity="0.3" d="M566.023 196.19H554.203V208.009H566.023V196.19Z" stroke="black" stroke-linecap="round" stroke-linejoin="round"/>
<path opacity="0.3" d="M584.925 196.19H573.105V208.009H584.925V196.19Z" stroke="black" stroke-linecap="round" stroke-linejoin="round"/>
<path opacity="0.3" d="M603.816 196.19H591.996V208.009H603.816V196.19Z" stroke="black" stroke-linecap="round" stroke-linejoin="round"/>
<path opacity="0.3" d="M547.116 217.003H535.297V228.823H547.116V217.003Z" stroke="black" stroke-linecap="round" stroke-linejoin="round"/>
<path opacity="0.3" d="M566.023 217.003H554.203V228.823H566.023V217.003Z" stroke="black" stroke-linecap="round" stroke-linejoin="round"/>
<path opacity="0.3" d="M584.925 217.003H573.105V228.823H584.925V217.003Z" stroke="black" stroke-linecap="round" stroke-linejoin="round"/>
<path opacity="0.3" d="M603.816 217.003H591.996V228.823H603.816V217.003Z" stroke="black" stroke-linecap="round" stroke-linejoin="round"/>
<path opacity="0.3" d="M539.598 157.202V143.92H546.885V156.772" stroke="black" stroke-linecap="round" stroke-linejoin="round"/>
<path opacity="0.3" d="M593.605 157.202V143.92H600.892V156.772" stroke="black" stroke-linecap="round" stroke-linejoin="round"/>
<path opacity="0.3" d="M564.887 157.202V143.92H572.174V156.772" stroke="black" stroke-linecap="round" stroke-linejoin="round"/>
</g>
<g opacity="0.3">
<path opacity="0.3" d="M37.6259 177.298H19.4375V224.577H37.6259V177.298Z" stroke="black" stroke-miterlimit="10"/>
<path opacity="0.3" d="M60.6064 180.928H42.418V224.577H60.6064V180.928Z" stroke="black" stroke-miterlimit="10"/>
<path opacity="0.3" d="M83.5829 170.026H65.3945V224.591H83.5829V170.026Z" stroke="black" stroke-miterlimit="10"/>
<path opacity="0.3" d="M106.563 140.922H88.375V224.577H106.563V140.922Z" stroke="black" stroke-miterlimit="10"/>
</g>
<g opacity="0.3">
<path opacity="0.3" d="M348.408 366.978C366.856 362.577 378.242 344.054 373.841 325.606C369.439 307.158 350.916 295.772 332.469 300.174C314.021 304.575 302.635 323.098 307.036 341.546C311.438 359.993 329.961 371.38 348.408 366.978Z" stroke="black" stroke-miterlimit="10"/>
<path opacity="0.3" d="M370.353 350.432C373.306 345.207 374.839 339.299 374.797 333.297C374.755 327.294 373.141 321.408 370.115 316.224C367.089 311.04 362.758 306.74 357.552 303.752C352.346 300.764 346.448 299.193 340.445 299.195V333.549L370.353 350.432Z" stroke="black" stroke-miterlimit="10"/>
<path opacity="0.3" d="M363.625 313.769L381.67 297.287H408.35" stroke="black" stroke-miterlimit="10"/>
<path opacity="0.3" d="M391.098 305.923H406.79" stroke="black" stroke-miterlimit="10"/>
<path opacity="0.3" d="M391.098 310.627H406.79" stroke="black" stroke-miterlimit="10"/>
<path opacity="0.3" d="M391.098 315.332H406.79" stroke="black" stroke-miterlimit="10"/>
</g>
<path d="M302.775 126.276H279.738V173.555H302.775V126.276Z" fill="#E97943" stroke="#263238" stroke-linecap="round" stroke-linejoin="round"/>
<path d="M331.88 129.92H308.844V173.569H331.88V129.92Z" fill="#E97943" stroke="#263238" stroke-linecap="round" stroke-linejoin="round"/>
<path d="M360.97 119.004H337.934V173.569H360.97V119.004Z" fill="#E97943" stroke="#263238" stroke-linecap="round" stroke-linejoin="round"/>
<path d="M390.076 89.8995H367.039V173.555H390.076V89.8995Z" fill="#E97943" stroke="#263238" stroke-linecap="round" stroke-linejoin="round"/>
<path d="M285.805 112.936L318.538 120.983L350.067 106.209L376.732 62.0288" stroke="#263238" stroke-width="5" stroke-linecap="round" stroke-linejoin="round"/>
<path d="M363.406 64.8259L380.547 55.9612L379.959 73.1025" stroke="#263238" stroke-width="5" stroke-linecap="round" stroke-linejoin="round"/>
<path d="M318.54 124.34C320.394 124.34 321.897 122.837 321.897 120.983C321.897 119.13 320.394 117.627 318.54 117.627C316.686 117.627 315.184 119.13 315.184 120.983C315.184 122.837 316.686 124.34 318.54 124.34Z" fill="#E97943" stroke="#263238" stroke-linecap="round" stroke-linejoin="round"/>
<path d="M353.08 105.606C353.08 104.943 352.883 104.294 352.515 103.742C352.146 103.19 351.622 102.759 351.008 102.505C350.395 102.251 349.72 102.185 349.069 102.314C348.418 102.444 347.82 102.764 347.35 103.233C346.881 103.702 346.561 104.3 346.432 104.952C346.302 105.603 346.369 106.278 346.623 106.891C346.877 107.504 347.307 108.028 347.859 108.397C348.411 108.766 349.06 108.963 349.724 108.963C350.614 108.963 351.468 108.609 352.097 107.98C352.727 107.35 353.08 106.497 353.08 105.606Z" fill="#E97943" stroke="#263238" stroke-linecap="round" stroke-linejoin="round"/>
<path d="M295.359 113.94C295.362 113.273 295.166 112.62 294.798 112.064C294.429 111.507 293.904 111.073 293.288 110.816C292.672 110.559 291.994 110.49 291.339 110.618C290.684 110.747 290.082 111.066 289.61 111.537C289.137 112.008 288.814 112.609 288.683 113.263C288.552 113.917 288.618 114.596 288.872 115.213C289.127 115.829 289.559 116.357 290.114 116.728C290.668 117.099 291.321 117.297 291.988 117.297C292.88 117.297 293.735 116.944 294.367 116.315C294.998 115.686 295.355 114.832 295.359 113.94Z" fill="#E97943" stroke="#263238" stroke-linecap="round" stroke-linejoin="round"/>
<path d="M382.931 57.0514C382.917 56.3908 382.708 55.749 382.331 55.2065C381.954 54.6641 381.425 54.245 380.81 54.002C380.196 53.7589 379.523 53.7025 378.877 53.84C378.231 53.9775 377.639 54.3027 377.177 54.7749C376.715 55.247 376.402 55.8451 376.278 56.4942C376.154 57.1433 376.225 57.8145 376.481 58.4236C376.737 59.0328 377.167 59.5528 377.717 59.9186C378.268 60.2843 378.914 60.4795 379.575 60.4796C380.021 60.4797 380.464 60.3906 380.876 60.2175C381.288 60.0443 381.661 59.7906 381.974 59.4713C382.286 59.152 382.532 58.7735 382.696 58.3579C382.861 57.9424 382.941 57.4982 382.931 57.0514Z" fill="#E97943" stroke="#263238" stroke-linecap="round" stroke-linejoin="round"/>
<path d="M20.7112 534.569C24.5411 536.232 33.8935 536.003 33.9079 536.003C33.9222 536.003 31.8853 529.878 31.7132 529.519C29.662 525.216 23.1067 518.13 17.8854 518.847C17.0121 518.99 16.1787 519.316 15.4396 519.802C14.7005 520.289 14.0723 520.926 13.5959 521.672C13.1195 522.417 12.8056 523.255 12.6747 524.13C12.5438 525.006 12.5989 525.898 12.8363 526.751C13.7113 530.409 17.4551 533.134 20.7112 534.569Z" fill="#006E6B"/>
<path d="M23.9366 561.65C27.91 562.238 36.2583 559.814 36.8464 559.613C38.2233 564.391 39.9148 569.073 41.9099 573.628C43.0574 576.281 44.3054 578.921 45.582 581.56C44.8074 580.441 44.1476 579.451 44.0185 579.322C40.9058 575.722 32.7727 570.601 27.8669 572.681C27.0615 573.05 26.3427 573.584 25.7573 574.249C25.1719 574.914 24.7331 575.694 24.4692 576.54C24.2054 577.385 24.1225 578.277 24.226 579.157C24.3295 580.037 24.617 580.885 25.0698 581.646C26.8772 584.945 31.2235 586.566 34.7378 587.083C38.2521 587.599 45.4672 585.648 47.3463 585.146C47.8484 586.15 48.3361 587.169 48.7807 588.173C51.2049 592.978 53.6291 597.769 55.9528 602.517C56.7417 604.195 57.3872 605.888 58.1762 607.566C57.502 606.576 56.9282 605.759 56.8278 605.63C53.7151 602.029 45.582 596.908 40.6763 598.988C39.8648 599.35 39.1388 599.879 38.5459 600.541C37.9531 601.203 37.5066 601.982 37.2358 602.829C36.965 603.675 36.8759 604.569 36.9744 605.452C37.0729 606.335 37.3568 607.187 37.8075 607.953C39.6148 611.252 43.9611 612.888 47.4754 613.39C50.9897 613.892 57.5163 612.17 59.754 611.554C60.4425 613.304 61.1884 615.054 61.7192 616.775C62.0921 617.951 62.5368 619.07 62.8524 620.289L63.8421 623.832C64.3872 626.113 64.961 628.451 65.4487 630.689C65.7929 632.238 66.0798 633.73 66.3954 635.222C65.6208 633.543 64.0429 630.273 63.8851 630.015C61.3606 625.984 54.0881 619.687 48.9242 621.006C48.0732 621.25 47.2828 621.669 46.6045 622.238C45.9261 622.806 45.375 623.511 44.9867 624.306C44.5985 625.102 44.3819 625.97 44.351 626.855C44.3201 627.739 44.4756 628.62 44.8074 629.441C46.0984 632.969 50.1434 635.178 53.543 636.283C57.2868 637.416 65.5634 636.383 66.5962 636.283C67.0982 638.765 67.5573 641.174 68.0306 643.455C68.3318 645.148 68.6044 646.769 68.8482 648.332H72.1617C71.8462 646.596 71.5162 644.775 71.1289 642.881C70.6412 640.357 70.0531 637.689 69.4363 634.935C71.932 633.939 74.3654 632.795 76.7232 631.506C79.4486 634.461 86.4485 637.918 87.3522 638.363C86.3911 640.701 85.4444 642.967 84.4834 645.09L83.0489 648.332H86.5633C86.8358 647.658 87.1227 647.012 87.3952 646.324C88.3706 643.943 89.3747 641.39 90.3645 638.765C91.3686 638.965 99.5734 640.644 103.403 639.769C106.86 638.994 111.063 637.029 112.612 633.601C113.005 632.807 113.225 631.94 113.26 631.056C113.295 630.172 113.143 629.29 112.814 628.469C112.485 627.647 111.987 626.904 111.351 626.288C110.716 625.672 109.958 625.197 109.127 624.894C104.077 623.187 96.3747 628.924 93.5489 632.754C93.3767 632.984 91.8419 635.623 90.9095 637.33C91.3112 636.24 91.7128 635.207 92.1144 634.088C92.9177 631.894 93.6493 629.67 94.4526 627.289C94.8112 626.127 95.1554 624.951 95.514 623.775C95.8726 622.599 96.1452 621.308 96.4607 620.074C97.1493 617.205 97.7087 614.236 98.1964 611.252C100.133 611.941 107.004 614.336 110.561 614.121C114.118 613.906 118.551 612.572 120.602 609.416C121.111 608.692 121.462 607.868 121.632 606.998C121.802 606.129 121.787 605.234 121.588 604.37C121.39 603.507 121.011 602.695 120.478 601.988C119.945 601.281 119.268 600.694 118.493 600.265C113.745 597.826 105.268 602.33 101.883 605.687C101.682 605.902 99.5304 608.556 98.3829 610.076C98.6554 608.269 98.9566 606.476 99.1718 604.64C99.8316 599.361 100.334 593.996 100.85 588.646C101.008 586.996 101.194 585.361 101.366 583.74C102.041 583.984 110.159 587.011 114.147 586.724C117.69 586.48 122.137 585.175 124.188 582.019C124.695 581.295 125.044 580.472 125.213 579.604C125.381 578.736 125.366 577.843 125.167 576.981C124.968 576.12 124.59 575.31 124.059 574.604C123.527 573.897 122.852 573.311 122.079 572.882C117.331 570.443 108.84 574.947 105.469 578.304C105.225 578.548 102.127 582.421 101.395 583.439C101.782 579.839 102.184 576.267 102.743 572.738C103.454 567.985 104.48 563.284 105.813 558.667C106.129 558.781 114.577 561.966 118.723 561.679C122.266 561.435 126.713 560.13 128.764 556.988C129.273 556.263 129.623 555.438 129.792 554.568C129.961 553.698 129.944 552.802 129.744 551.939C129.544 551.076 129.164 550.264 128.629 549.557C128.095 548.851 127.417 548.264 126.641 547.837C121.907 545.398 113.416 549.902 110.045 553.259C109.786 553.517 106.459 557.677 105.914 558.466C106 558.208 106.043 557.921 106.129 557.648C107.591 553.055 109.458 548.6 111.709 544.337C112.913 541.97 114.204 539.761 115.51 537.652C117.03 538.413 123.973 541.784 127.688 541.956C131.403 542.128 135.792 541.282 138.188 538.384C138.791 537.722 139.246 536.939 139.523 536.088C139.8 535.237 139.893 534.336 139.795 533.446C139.697 532.556 139.411 531.697 138.956 530.926C138.501 530.155 137.887 529.49 137.155 528.974C132.708 526.019 123.786 529.562 120.057 532.532C119.856 532.689 117.977 534.554 116.629 535.946C117.245 534.999 117.848 534.009 118.436 533.077C120.674 529.72 122.911 526.78 124.934 524.198C126.081 522.763 127.157 521.444 128.176 520.239C130.04 520.239 137.585 519.966 140.885 518.431C144.184 516.897 147.784 514.128 148.559 510.413C148.77 509.553 148.798 508.659 148.641 507.788C148.484 506.917 148.146 506.089 147.648 505.357C147.15 504.625 146.504 504.006 145.752 503.54C144.999 503.074 144.157 502.772 143.28 502.653C137.987 502.079 131.69 509.337 129.754 513.683C129.596 514.071 127.645 520.239 127.745 520.239H127.86C126.856 521.372 125.795 522.605 124.661 523.983C122.581 526.521 120.272 529.419 117.963 532.747C115.43 536.294 113.107 539.987 111.006 543.806C108.642 548.082 106.655 552.555 105.067 557.175V557.347C105.067 555.784 105.067 551.423 104.981 551.079C104.379 546.359 100.42 537.609 95.1698 536.634C94.2947 536.498 93.4008 536.548 92.5463 536.78C91.6918 537.013 90.8957 537.422 90.2097 537.982C89.5238 538.542 88.9635 539.24 88.565 540.031C88.1666 540.822 87.9391 541.688 87.8973 542.573C87.596 546.316 90.3071 550.075 92.9608 552.441C95.9587 555.109 104.25 557.691 104.909 557.892C103.385 562.655 102.177 567.514 101.295 572.437C100.778 575.306 100.362 578.175 99.9751 581.044C99.9751 579.695 99.9751 578.476 99.9751 578.318C99.3583 573.599 95.4136 564.835 90.1636 563.874C89.2894 563.736 88.3959 563.783 87.5413 564.014C86.6868 564.244 85.8904 564.652 85.2042 565.211C84.518 565.77 83.9573 566.468 83.5588 567.258C83.1602 568.048 82.9327 568.914 82.8912 569.798C82.5899 573.542 85.301 577.3 87.9546 579.667C90.6083 582.033 97.68 584.414 99.5447 585.017C99.4013 586.121 99.2578 587.24 99.1287 588.359C98.4833 593.695 97.8665 599.046 97.1062 604.252C96.8337 606.103 96.5038 607.896 96.1882 609.703C96.1882 608.498 96.1882 607.494 96.1882 607.336C95.5714 602.617 91.6267 593.867 86.3768 592.892C85.5017 592.756 84.6079 592.806 83.7533 593.038C82.8988 593.27 82.1027 593.68 81.4168 594.24C80.7309 594.8 80.1705 595.498 79.7721 596.289C79.3737 597.08 79.1461 597.946 79.1043 598.83C78.8031 602.574 81.5141 606.332 84.1678 608.699C86.8215 611.066 93.2046 613.218 95.428 613.935C95.0407 615.771 94.6534 617.607 94.1944 619.371C93.8501 620.562 93.6062 621.738 93.1903 622.929C92.7743 624.119 92.43 625.267 92.0571 626.429C91.2681 628.623 90.4505 630.904 89.6186 633.027C89.0448 634.461 88.471 635.896 87.9116 637.33C88.1985 635.508 88.6862 631.922 88.6862 631.592C88.6278 627.408 87.4968 623.309 85.4014 619.687C85.4188 619.207 85.39 618.727 85.3153 618.252C85.2062 617.374 84.9132 616.529 84.4554 615.772C83.9977 615.014 83.3855 614.362 82.6587 613.857C81.9319 613.352 81.1069 613.006 80.2374 612.842C79.3679 612.677 78.4735 612.698 77.6125 612.902C72.4629 614.265 69.1925 623.301 69.006 628.064C69.006 628.336 69.1781 631.392 69.3216 633.328C69.0634 632.209 68.8195 631.119 68.547 629.972C68.0019 627.691 67.3995 625.439 66.754 623C66.4097 621.838 66.0511 620.662 65.6925 619.472C65.3339 618.281 64.8605 617.09 64.4446 615.871C63.4261 613.088 62.2642 610.32 61.0163 607.552C63.0101 607.078 70.0675 605.271 72.8933 603.105C75.7191 600.939 78.717 597.367 78.6309 593.638C78.6539 592.753 78.4905 591.873 78.1513 591.056C77.8121 590.238 77.3048 589.501 76.6623 588.892C76.0197 588.284 75.2564 587.817 74.4217 587.522C73.587 587.228 72.6997 587.112 71.8175 587.183C66.5245 587.757 61.92 596.191 60.9589 600.853C60.9589 601.154 60.586 604.568 60.4425 606.447C59.6966 604.798 59.0081 603.134 58.1188 601.484C55.752 596.722 53.2131 591.96 50.6885 587.212C49.9139 585.777 49.168 584.343 48.4078 582.837C49.125 582.679 57.545 580.714 60.7294 578.29C63.5983 576.124 66.4671 572.552 66.4671 568.822C66.49 567.938 66.3266 567.058 65.9875 566.24C65.6483 565.423 65.141 564.686 64.4984 564.077C63.8559 563.468 63.0925 563.001 62.2578 562.707C61.4232 562.412 60.5359 562.297 59.6536 562.368C54.3606 562.941 49.7561 571.376 48.7951 576.037C48.7234 576.382 48.2787 581.316 48.2213 582.564C46.5574 579.351 44.9222 576.138 43.4447 572.91C41.4084 568.58 39.6501 564.124 38.1804 559.57C38.5247 559.499 47.332 557.49 50.5738 555.009C53.4426 552.843 56.3114 549.271 56.3114 545.542C56.3366 544.656 56.1748 543.776 55.8364 542.957C55.498 542.138 54.9907 541.4 54.3477 540.791C53.7046 540.182 52.9403 539.715 52.1046 539.422C51.2689 539.128 50.3807 539.014 49.4979 539.087C44.2049 539.661 39.6148 548.095 38.6538 552.757C38.5677 553.13 38.0943 558.423 38.08 559.384C37.9939 559.126 37.8792 558.853 37.8075 558.581C36.4896 553.946 35.5871 549.203 35.1108 544.409C34.8095 541.755 34.6804 539.216 34.5944 536.734C36.2726 536.519 43.9324 535.501 47.1168 533.593C50.3012 531.685 53.5143 528.558 53.9016 524.814C54.0228 523.937 53.9578 523.043 53.7108 522.192C53.4638 521.341 53.0403 520.551 52.4679 519.875C51.8955 519.198 51.1871 518.65 50.3887 518.265C49.5903 517.88 48.7199 517.668 47.834 517.642C42.5123 517.642 37.0185 525.517 35.5411 530.05C35.5411 530.294 34.9243 532.919 34.5657 534.784C34.5657 533.665 34.5657 532.503 34.5657 531.427C34.5657 527.396 34.8239 523.71 35.0677 520.44C35.2398 518.589 35.412 516.911 35.5985 515.347C37.1476 514.286 43.3013 509.94 45.1947 506.827C47.0881 503.714 48.5656 499.411 47.1885 495.911C46.8904 495.077 46.42 494.315 45.8078 493.674C45.1957 493.034 44.4556 492.529 43.6356 492.194C42.8157 491.858 41.9343 491.699 41.0488 491.726C40.1632 491.754 39.2935 491.968 38.496 492.354C33.7624 494.792 32.5145 504.331 33.3034 509.022C33.3034 509.423 35.1538 515.649 35.2398 515.591C35.3259 515.534 35.3116 515.591 35.3403 515.591C35.1251 517.026 34.9243 518.704 34.7378 520.468C34.4079 523.739 34.0636 527.425 33.9776 531.47C33.8241 535.828 33.9295 540.192 34.2931 544.538C34.6811 549.392 35.502 554.202 36.746 558.911C36.746 558.911 36.746 559.011 36.746 559.068C35.914 557.749 33.4468 554.148 33.2173 553.89C30.1046 550.304 21.9715 545.169 17.0658 547.263C16.26 547.631 15.541 548.166 14.9559 548.831C14.3707 549.496 13.9324 550.277 13.6698 551.123C13.4071 551.97 13.326 552.862 13.4317 553.741C13.5373 554.621 13.8274 555.468 14.283 556.228C16.0904 559.513 20.4223 561.148 23.9366 561.65Z" fill="#006E6B"/>
<path d="M115.325 536.62C115.412 536.62 117.032 530.409 117.09 529.993C117.735 525.288 116.243 515.792 111.438 513.468C110.629 513.102 109.752 512.911 108.864 512.906C107.976 512.902 107.097 513.086 106.285 513.444C105.473 513.803 104.745 514.329 104.15 514.988C103.555 515.648 103.106 516.425 102.832 517.269C101.541 520.812 103.176 525.144 105.112 528.128C107.407 531.628 115.325 536.62 115.325 536.62Z" fill="#006E6B"/>
<path d="M524.979 534.569C528.795 536.232 538.147 536.003 538.161 536.003C538.176 536.003 536.153 529.878 535.967 529.519C533.915 525.216 527.432 518.13 522.153 518.847C521.28 518.991 520.446 519.316 519.706 519.802C518.967 520.289 518.338 520.926 517.86 521.671C517.383 522.416 517.067 523.254 516.935 524.129C516.802 525.004 516.855 525.898 517.09 526.751C517.965 530.409 521.723 533.134 524.979 534.569Z" fill="#006E6B"/>
<path d="M528.208 561.65C532.167 562.238 540.515 559.814 541.189 559.613C542.553 564.396 544.245 569.078 546.253 573.628C547.4 576.281 548.634 578.921 549.911 581.56C549.15 580.441 548.476 579.451 548.347 579.322C545.234 575.722 537.101 570.601 532.196 572.681C531.392 573.051 530.674 573.587 530.09 574.252C529.506 574.917 529.068 575.697 528.805 576.542C528.541 577.387 528.458 578.278 528.56 579.157C528.662 580.036 528.948 580.884 529.398 581.646C531.22 584.945 535.552 586.566 539.066 587.083C542.581 587.599 549.796 585.648 551.689 585.146C552.191 586.15 552.679 587.169 553.124 588.173C555.534 592.978 557.972 597.769 560.21 602.517C560.999 604.195 561.644 605.888 562.447 607.566C561.773 606.576 561.185 605.759 561.085 605.63C557.972 602.029 549.839 596.908 544.933 598.988C544.129 599.359 543.412 599.894 542.828 600.559C542.244 601.224 541.806 602.004 541.542 602.849C541.279 603.694 541.195 604.585 541.298 605.464C541.4 606.343 541.685 607.191 542.136 607.953C543.958 611.252 548.29 612.888 551.804 613.39C555.318 613.892 561.845 612.17 564.083 611.554C564.771 613.304 565.517 615.054 566.062 616.775C566.435 617.951 566.88 619.07 567.181 620.289C567.482 621.508 567.855 622.656 568.171 623.832C568.716 626.113 569.304 628.451 569.777 630.689C570.122 632.238 570.423 633.73 570.724 635.222C569.949 633.543 568.386 630.273 568.228 630.015C565.689 625.984 558.431 619.687 553.267 621.006C552.415 621.248 551.623 621.666 550.943 622.234C550.264 622.802 549.712 623.507 549.323 624.303C548.935 625.099 548.719 625.968 548.689 626.854C548.659 627.739 548.816 628.62 549.15 629.441C550.441 632.969 554.472 635.178 557.872 636.283C561.615 637.416 569.906 636.383 570.939 636.283C571.427 638.765 571.9 641.174 572.288 643.455C572.589 645.148 572.861 646.769 573.105 648.332H576.433C576.117 646.596 575.773 644.775 575.4 642.881C574.898 640.357 574.324 637.689 573.708 634.935C576.201 633.934 578.634 632.789 580.994 631.506C583.72 634.461 590.705 637.918 591.609 638.363C590.662 640.701 589.716 642.967 588.74 645.09C588.253 646.209 587.779 647.271 587.306 648.332H590.806L591.652 646.324C592.628 643.943 593.617 641.39 594.621 638.765C595.625 638.965 603.816 640.644 607.646 639.769C611.117 638.994 615.306 637.029 616.855 633.601C617.25 632.809 617.473 631.942 617.51 631.058C617.547 630.174 617.396 629.292 617.068 628.47C616.741 627.648 616.243 626.905 615.608 626.288C614.973 625.672 614.215 625.197 613.384 624.894C608.334 623.187 600.617 628.924 597.791 632.754C597.634 632.984 596.099 635.623 595.152 637.33C595.554 636.24 595.955 635.207 596.357 634.088C597.16 631.894 597.906 629.67 598.709 627.289C599.054 626.127 599.412 624.951 599.757 623.775C600.101 622.599 600.388 621.308 600.718 620.074C601.392 617.205 601.951 614.236 602.453 611.252C604.375 611.941 611.246 614.336 614.804 614.121C618.361 613.906 622.808 612.572 624.845 609.416C625.353 608.691 625.704 607.866 625.872 606.996C626.041 606.126 626.025 605.23 625.825 604.367C625.625 603.504 625.245 602.692 624.71 601.985C624.175 601.279 623.498 600.692 622.722 600.265C617.988 597.826 609.496 602.33 606.125 605.687C605.91 605.902 603.759 608.556 602.611 610.076C602.898 608.269 603.185 606.476 603.414 604.64C604.074 599.361 604.562 593.996 605.093 588.646C605.25 586.996 605.423 585.361 605.595 583.74C606.283 583.984 614.388 587.011 618.375 586.724C621.918 586.48 626.379 585.175 628.416 582.019C628.925 581.295 629.275 580.471 629.444 579.602C629.612 578.733 629.596 577.838 629.396 576.976C629.195 576.114 628.816 575.304 628.281 574.598C627.746 573.893 627.069 573.308 626.293 572.882C621.56 570.443 613.068 574.947 609.697 578.304C609.439 578.548 606.355 582.421 605.609 583.439C605.996 579.839 606.412 576.267 606.957 572.738C607.675 567.986 608.7 563.286 610.027 558.667C610.343 558.781 618.791 561.966 622.937 561.679C626.48 561.435 630.926 560.13 632.978 556.988C633.486 556.263 633.837 555.438 634.006 554.568C634.174 553.698 634.158 552.802 633.958 551.939C633.758 551.076 633.378 550.264 632.843 549.557C632.309 548.851 631.631 548.264 630.855 547.837C626.121 545.398 617.629 549.902 614.259 553.259C613.986 553.517 610.673 557.677 610.127 558.466C610.127 558.208 610.257 557.921 610.328 557.648C611.791 553.055 613.658 548.6 615.908 544.337C617.127 541.97 618.418 539.761 619.709 537.653C621.23 538.413 628.187 541.784 631.887 541.956C635.588 542.128 640.006 541.282 642.387 538.384C642.972 537.719 643.41 536.938 643.673 536.092C643.936 535.247 644.018 534.355 643.914 533.476C643.809 532.597 643.521 531.749 643.068 530.988C642.615 530.228 642.007 529.571 641.283 529.06C636.851 526.105 627.914 529.648 624.199 532.618C623.984 532.776 622.119 534.64 620.771 536.032C621.373 535.085 621.976 534.095 622.578 533.163C624.801 529.806 627.054 526.866 629.062 524.284C630.224 522.849 631.285 521.53 632.303 520.325C634.183 520.325 641.728 520.052 645.012 518.517C648.297 516.983 651.912 514.214 652.687 510.499C652.9 509.64 652.93 508.747 652.775 507.875C652.62 507.004 652.284 506.176 651.787 505.444C651.29 504.711 650.645 504.092 649.893 503.626C649.141 503.16 648.299 502.858 647.422 502.739C642.115 502.165 635.818 509.423 633.881 513.769C633.724 514.157 631.787 520.325 631.873 520.325H632.031C631.027 521.458 629.965 522.692 628.832 524.069C626.767 526.607 624.443 529.505 622.133 532.833C619.6 536.377 617.282 540.07 615.191 543.892C612.816 548.162 610.828 552.636 609.252 557.261C609.259 557.318 609.259 557.376 609.252 557.433C609.252 555.87 609.252 551.509 609.181 551.165C608.564 546.445 604.605 537.696 599.369 536.72C598.494 536.584 597.6 536.634 596.746 536.866C595.891 537.099 595.095 537.508 594.409 538.068C593.723 538.628 593.163 539.327 592.765 540.117C592.366 540.908 592.139 541.774 592.097 542.659C591.781 546.402 594.507 550.161 597.16 552.527C600.144 555.195 608.449 557.777 609.109 557.978C607.615 562.719 606.441 567.554 605.595 572.451C605.093 575.32 604.662 578.189 604.275 581.058C604.275 579.71 604.275 578.49 604.203 578.333C603.601 573.613 599.642 564.849 594.406 563.888C593.532 563.748 592.637 563.794 591.782 564.023C590.926 564.253 590.129 564.661 589.442 565.22C588.755 565.78 588.195 566.478 587.797 567.269C587.399 568.061 587.173 568.927 587.134 569.812C586.818 573.556 589.544 577.314 592.183 579.681C594.822 582.048 601.908 584.429 603.773 585.031C603.644 586.136 603.486 587.255 603.357 588.373C602.711 593.71 602.109 599.06 601.334 604.267C601.076 606.117 600.746 607.91 600.416 609.718C600.416 608.513 600.416 607.509 600.345 607.351C599.742 602.632 595.783 593.882 590.548 592.906C589.673 592.77 588.779 592.82 587.924 593.052C587.07 593.285 586.274 593.694 585.588 594.254C584.902 594.814 584.341 595.513 583.943 596.303C583.544 597.094 583.317 597.96 583.275 598.845C582.96 602.589 585.685 606.347 588.339 608.713C590.992 611.08 597.375 613.232 599.584 613.949C599.197 615.785 598.81 617.621 598.351 619.386C598.007 620.576 597.763 621.752 597.361 622.943C596.959 624.133 596.601 625.281 596.228 626.443C595.425 628.638 594.607 630.918 593.775 633.041C593.216 634.476 592.642 635.91 592.068 637.344C592.355 635.523 592.843 631.937 592.857 631.607C592.792 627.424 591.661 623.326 589.572 619.701C589.59 619.221 589.561 618.741 589.486 618.267C589.375 617.388 589.08 616.542 588.621 615.785C588.162 615.028 587.548 614.376 586.821 613.871C586.093 613.366 585.267 613.02 584.396 612.856C583.526 612.692 582.631 612.712 581.769 612.916C576.619 614.279 573.349 623.316 573.162 628.078C573.162 628.351 573.335 631.406 573.478 633.342C573.22 632.224 572.99 631.133 572.704 629.986C572.173 627.705 571.556 625.453 570.91 623.015C570.566 621.853 570.208 620.677 569.849 619.486C569.49 618.295 569.017 617.105 568.601 615.886C567.583 613.103 566.421 610.334 565.187 607.566C567.181 607.093 574.224 605.285 577.064 603.119C579.904 600.953 582.873 597.382 582.802 593.652C582.825 592.767 582.661 591.888 582.322 591.07C581.983 590.253 581.476 589.515 580.833 588.907C580.191 588.298 579.427 587.831 578.593 587.537C577.758 587.242 576.871 587.127 575.988 587.197C570.695 587.771 566.091 596.205 565.13 600.867C565.13 601.168 564.757 604.582 564.628 606.461C563.867 604.812 563.122 603.148 562.304 601.498C559.937 596.736 557.384 591.974 554.874 587.226C554.099 585.792 553.339 584.357 552.593 582.851C553.296 582.693 561.73 580.728 564.9 578.304C567.769 576.138 570.71 572.566 570.638 568.837C570.661 567.952 570.497 567.072 570.158 566.255C569.819 565.437 569.312 564.7 568.669 564.091C568.027 563.483 567.263 563.016 566.429 562.721C565.594 562.427 564.707 562.311 563.824 562.382C558.531 562.956 553.941 571.39 552.966 576.052C552.894 576.396 552.45 581.33 552.406 582.578C550.743 579.365 549.107 576.152 547.616 572.925C545.605 568.558 543.871 564.069 542.423 559.484C542.753 559.413 551.56 557.404 554.802 554.923C557.671 552.757 560.626 549.185 560.54 545.456C560.563 544.571 560.399 543.691 560.06 542.874C559.721 542.056 559.214 541.319 558.571 540.71C557.928 540.102 557.165 539.635 556.33 539.34C555.496 539.046 554.608 538.93 553.726 539.001C548.433 539.575 543.829 548.009 542.868 552.671C542.796 553.044 542.323 558.337 542.294 559.298C542.222 559.04 542.107 558.767 542.021 558.495C540.703 553.86 539.801 549.117 539.325 544.323C539.023 541.669 538.894 539.13 538.823 536.648C540.501 536.433 548.161 535.415 551.331 533.507C554.501 531.599 557.728 528.472 558.115 524.728C558.237 523.852 558.172 522.959 557.926 522.109C557.68 521.259 557.257 520.47 556.687 519.794C556.116 519.118 555.409 518.569 554.612 518.183C553.816 517.798 552.947 517.584 552.062 517.556C546.726 517.556 541.232 525.431 539.769 529.964C539.683 530.208 539.152 532.833 538.794 534.698C538.794 533.579 538.794 532.417 538.794 531.341C538.794 527.31 539.052 523.624 539.31 520.353C539.468 518.503 539.64 516.825 539.827 515.261C541.376 514.2 547.544 509.854 549.437 506.741C551.331 503.628 552.794 499.325 551.417 495.825C551.12 494.991 550.651 494.229 550.041 493.589C549.43 492.948 548.691 492.444 547.872 492.108C547.053 491.773 546.173 491.613 545.288 491.641C544.404 491.668 543.535 491.882 542.739 492.268C538.005 494.706 536.757 504.245 537.532 508.936C537.603 509.337 539.396 515.562 539.468 515.505H539.568C539.353 516.94 539.152 518.618 538.966 520.382C538.636 523.653 538.306 527.339 538.206 531.384C538.059 535.742 538.165 540.106 538.521 544.452C538.896 549.325 539.708 554.154 540.946 558.882V559.04C540.114 557.72 537.646 554.12 537.431 553.861C534.318 550.275 526.185 545.14 521.28 547.234C520.473 547.6 519.753 548.132 519.166 548.795C518.58 549.458 518.14 550.238 517.876 551.083C517.612 551.928 517.529 552.82 517.634 553.699C517.738 554.578 518.028 555.426 518.483 556.185C520.347 559.513 524.694 561.148 528.208 561.65Z" fill="#006E6B"/>
<path d="M619.581 536.62C619.667 536.62 621.288 530.409 621.345 529.993C622.005 525.288 620.499 515.792 615.694 513.468C614.885 513.102 614.008 512.911 613.12 512.906C612.232 512.902 611.353 513.086 610.541 513.444C609.728 513.803 609.001 514.329 608.406 514.988C607.811 515.648 607.361 516.425 607.087 517.269C605.811 520.812 607.432 525.144 609.368 528.128C611.663 531.628 619.581 536.62 619.581 536.62Z" fill="#006E6B"/>
<path d="M237.911 434.991H575.644C577.649 434.991 579.572 435.788 580.989 437.205C582.407 438.623 583.204 440.546 583.204 442.551V639.281C583.204 641.404 582.36 643.44 580.859 644.941C579.358 646.442 577.322 647.285 575.2 647.285H238.356C236.24 647.274 234.215 646.425 232.724 644.925C231.232 643.426 230.395 641.396 230.395 639.281V442.565C230.391 440.565 231.18 438.645 232.588 437.226C233.997 435.806 235.911 435.003 237.911 434.991Z" fill="white" stroke="#263238" stroke-linecap="round" stroke-linejoin="round"/>
<path d="M444.382 402.043H369.176C368.004 402.043 366.844 402.274 365.762 402.722C364.679 403.17 363.696 403.828 362.867 404.656C362.039 405.484 361.381 406.468 360.933 407.551C360.485 408.633 360.254 409.793 360.254 410.965V440.27H370.653C370.04 438.959 369.722 437.529 369.721 436.081V422.168C369.721 419.535 370.767 417.01 372.628 415.149C374.49 413.287 377.015 412.241 379.647 412.241H433.911C436.544 412.241 439.069 413.287 440.93 415.149C442.792 417.01 443.837 419.535 443.837 422.168V436.081C443.837 437.529 443.518 438.959 442.905 440.27H453.304V410.965C453.304 409.793 453.074 408.633 452.625 407.551C452.177 406.468 451.52 405.484 450.691 404.656C449.863 403.828 448.879 403.17 447.797 402.722C446.714 402.274 445.554 402.043 444.382 402.043Z" fill="#263238" stroke="#263238" stroke-linecap="round" stroke-linejoin="round"/>
<path d="M230.395 486.315L406.828 541.138L583.261 488.065V442.565C583.257 440.558 582.458 438.633 581.039 437.214C579.619 435.794 577.695 434.995 575.687 434.991H237.911C235.905 434.995 233.982 435.795 232.565 437.215C231.148 438.635 230.352 440.559 230.352 442.565L230.395 486.315Z" fill="white" stroke="#263238" stroke-linecap="round" stroke-linejoin="round"/>
<path d="M515.082 502.323L578.168 483.432V442.163" stroke="#263238" stroke-linecap="round" stroke-linejoin="round"/>
<path d="M421.359 530.409L507.984 504.46" stroke="#263238" stroke-linecap="round" stroke-linejoin="round"/>
<path d="M344.704 516.079L253.762 487.864" stroke="#263238" stroke-linecap="round" stroke-linejoin="round"/>
<path d="M390.893 530.409L352.551 518.517" stroke="#263238" stroke-linecap="round" stroke-linejoin="round"/>
<path d="M418.259 525.36H395.309V556.917H418.259V525.36Z" fill="#263238" stroke="#263238" stroke-linecap="round" stroke-linejoin="round"/>
<path d="M526.747 641.504H514.684" stroke="#263238" stroke-linecap="round" stroke-linejoin="round"/>
<path d="M576.26 535.487V632.252C576.262 633.461 576.026 634.658 575.564 635.775C575.103 636.892 574.426 637.908 573.572 638.763C572.718 639.618 571.704 640.297 570.588 640.76C569.471 641.223 568.274 641.461 567.066 641.461H532.453" stroke="#263238" stroke-linecap="round" stroke-linejoin="round"/>
<path d="M576.262 512.622V525.331" stroke="#263238" stroke-linecap="round" stroke-linejoin="round"/>
<path d="M456.027 523.237C456.027 523.237 460.574 558.509 463.601 571.333C466.628 584.156 477.816 630.258 477.945 634.691C478.074 639.123 467.359 648.719 462.654 651.459C457.949 654.199 463.917 656.221 468.708 655.676C473.499 655.131 481.13 652.291 482.205 651.158C483.229 650.238 484.355 649.439 485.562 648.777L486.164 648.432L485.892 651.029L491.386 649.723C491.639 645.416 491.49 641.094 490.941 636.814C490.037 632.037 489.507 627.992 489.507 627.992C489.507 627.992 488.072 554.22 487.843 547.952C487.613 541.683 487.355 533.607 487.355 533.607L456.027 523.237Z" fill="white" stroke="#001820" stroke-linecap="round" stroke-linejoin="round"/>
<path d="M468.736 655.676C473.513 655.146 481.158 652.291 482.234 651.158C483.257 650.238 484.384 649.439 485.59 648.777L486.193 648.432L485.92 651.029L491.414 649.723C491.667 645.416 491.518 641.094 490.969 636.814C487.068 641.748 476.625 647.644 473.642 648.117C472.873 648.294 472.075 648.299 471.304 648.133C470.533 647.967 469.808 647.633 469.181 647.156L468.578 647.027C466.74 648.661 464.768 650.139 462.683 651.445C457.978 654.213 463.945 656.221 468.736 655.676Z" fill="#001820" stroke="#001820" stroke-linecap="round" stroke-linejoin="round"/>
<path d="M496.58 532.532C496.58 532.532 499.004 570.472 502.676 580.685C506.348 590.898 510.393 632.826 510.393 632.826C509.203 637.743 507.767 642.598 506.09 647.371C503.15 654.973 505.459 661.055 509.877 660.539C514.295 660.023 519.918 651.689 520.061 645.42C520.256 640.704 520.706 636.002 521.41 631.334C521.41 631.334 525.928 590.955 526.932 577.257C527.936 563.558 525.139 547.048 525.096 545.571C525.053 544.093 526.287 526.708 526.287 526.708L496.164 530.696L496.58 532.532Z" fill="white" stroke="#001820" stroke-linecap="round" stroke-linejoin="round"/>
<path d="M520.293 641.103C518.084 644.904 514.67 649.709 511.342 649.781C508.401 649.881 507.455 646.912 507.211 644.23C506.838 645.348 506.465 646.424 506.092 647.371C503.152 654.973 505.461 661.055 509.879 660.539C514.297 660.023 519.92 651.689 520.063 645.42C520.149 644.014 520.149 642.551 520.293 641.103Z" fill="#001820" stroke="#001820" stroke-linecap="round" stroke-linejoin="round"/>
<path d="M453.391 405.127C446.88 417.916 442.363 431.624 439.994 445.778C436.106 469.173 452.789 525.503 452.789 525.503C452.789 525.503 466.114 537.222 490.083 537.495C514.052 537.767 526.847 532.905 526.847 532.905C526.847 532.905 538.466 473.046 535.77 446.983C533.876 430.941 527.142 415.855 516.462 403.735L455.743 401.11L453.391 405.127Z" fill="#001820" stroke="#001820" stroke-linecap="round" stroke-linejoin="round"/>
<path d="M411.949 404.94C411.949 404.94 399.556 407.809 397.462 408.512C395.368 409.215 390.864 412.012 389.96 413.776C389.056 415.541 385.384 420.662 385.528 424.879C385.671 429.096 385.743 430.832 386.962 430.803C388.181 430.774 389.53 427.245 390.677 426.83C391.825 426.414 400.546 423.401 402.081 423.358C404.792 423.337 407.466 422.72 409.913 421.551C412.612 420.032 415.125 418.202 417.4 416.1L413.943 404.625L411.949 404.94Z" fill="white" stroke="#001820" stroke-linecap="round" stroke-linejoin="round"/>
<path d="M401.177 410.119C399.071 411.246 397.057 412.536 395.152 413.977C394.607 414.766 386.904 425.452 389.199 425.338C391.494 425.223 397.992 418.295 397.992 418.295L406.441 418.008C408.75 417.936 410.959 415.139 410.959 415.139" fill="white"/>
<path d="M401.177 410.119C399.071 411.246 397.057 412.536 395.152 413.977C394.607 414.766 386.904 425.452 389.199 425.338C391.494 425.223 397.992 418.295 397.992 418.295L406.441 418.008C408.75 417.936 410.959 415.139 410.959 415.139" stroke="#001820" stroke-linecap="round" stroke-linejoin="round"/>
<path d="M488.332 299.597C488.332 299.597 454.48 311.589 453.261 315.691C452.042 319.793 440.738 383.754 440.738 383.754L411.691 404.18L416.741 419.787L449.201 406.877L439.576 441.475C439.576 441.475 458.396 450.741 479.166 451.831C499.937 452.922 523.146 445.807 526.273 444.788C529.4 443.77 538.293 440.313 538.293 440.313L527.564 378.016C527.564 378.016 540.258 327.984 540.574 323.91C540.889 319.836 542.309 308.964 542.266 307.615C542.223 306.267 513.578 299.855 513.578 299.855L488.332 299.597Z" fill="#E97943" stroke="#001820" stroke-linecap="round" stroke-linejoin="round"/>
<path d="M467.718 436.526L466.27 444.186" stroke="#001820" stroke-linecap="round" stroke-linejoin="round"/>
<path d="M474.188 307.041L474.862 353.258L467.145 364.805L473.14 407.881L468.737 431.19" stroke="#001820" stroke-linecap="round" stroke-linejoin="round"/>
<path d="M471.379 362.582C471.379 362.582 504.758 331.025 514.799 321.213C520.2 316.081 525.135 310.479 529.544 304.474" stroke="#001820" stroke-linecap="round" stroke-linejoin="round"/>
<path d="M459.541 327.64C459.541 327.64 451.351 351.824 453.359 357.619C455.367 363.414 457.39 382.721 457.39 382.721L449.199 406.905" stroke="#001820" stroke-linecap="round" stroke-linejoin="round"/>
<path d="M490.356 250.898C490.356 250.898 484.03 254.886 483.055 257.884C482.079 260.882 481.62 263.851 479.555 265.271C477.489 266.691 472.842 266.031 473.186 267.911C473.53 269.79 476.342 273.72 476.342 273.72C476.342 273.72 474.907 286.415 474.993 289.097C475.079 291.779 479.182 293.529 481.061 293.4C482.682 293.274 484.292 293.039 485.881 292.697L486.741 302.078L477.131 350.848L513.579 299.812L511.212 293.974L512.03 286.142C513.922 280.09 514.071 273.627 512.46 267.495C511.556 263.855 509.943 260.43 507.713 257.414C505.483 254.399 502.68 251.853 499.465 249.923C498.071 248.998 496.398 248.589 494.734 248.767C493.071 248.945 491.522 249.699 490.356 250.898Z" fill="white" stroke="#001820" stroke-linecap="round" stroke-linejoin="round"/>
<path d="M485.879 292.769L491.703 290.445L486.74 300.041L485.879 292.769Z" fill="#001820" stroke="#001820" stroke-linecap="round" stroke-linejoin="round"/>
<path d="M484.072 265.4C483.742 266.548 483.068 267.351 482.566 267.208C482.064 267.064 481.935 266.017 482.279 264.87C482.623 263.722 483.283 262.933 483.713 263.077C484.144 263.22 484.416 264.267 484.072 265.4Z" fill="#001820"/>
<path d="M483.398 259.749C483.398 259.749 486.009 257.511 486.411 261.269" stroke="#001820" stroke-linecap="round" stroke-linejoin="round"/>
<path d="M476.797 279.386C477.51 279.404 478.217 279.255 478.862 278.951C479.507 278.647 480.072 278.197 480.512 277.636" stroke="#001820" stroke-linecap="round" stroke-linejoin="round"/>
<path d="M483.397 319.134L477.129 350.92L498.76 320.625L483.397 319.134Z" stroke="#001820" stroke-linecap="round" stroke-linejoin="round"/>
<path d="M514.609 235.105C514.609 235.105 509.66 224.878 499.275 224.878C488.89 224.878 481.919 233.929 482.162 240.829C482.406 247.728 490.984 251.673 492.562 252.763C494.14 253.853 488.115 257.525 490.998 263.191C492.776 266.649 495.389 269.607 498.601 271.798C498.601 271.798 503.406 266.247 507.38 270.363C511.353 274.48 507.681 278.812 504.654 280.404C503.026 281.345 501.217 281.932 499.347 282.126C501.933 283.841 504.336 285.816 506.519 288.021C509.703 291.363 516.129 288.466 518.353 286.07C520.576 283.675 521.652 281.351 525.84 280.447C530.029 279.544 539.051 273.447 539.439 262.689C539.826 251.931 536.14 244.745 528.279 239.638C520.418 234.532 514.609 235.105 514.609 235.105Z" fill="#001820" stroke="#001820" stroke-linecap="round" stroke-linejoin="round"/>
<path d="M527.532 417.477L522.569 423.989C522.569 423.989 514.077 428.293 514.12 429.856C514.163 431.42 510.52 436.713 510.348 437.286C510.623 440.134 511.17 442.949 511.983 445.692C512.385 446.452 511.983 449.737 514.852 450.397C517.721 451.057 519.6 448.891 520.374 448.862C521.149 448.833 525.395 449.465 527.848 448.217C530.3 446.969 532.681 432.295 533.011 430.745C533.341 429.196 537.745 423.086 537.745 423.086L527.532 417.477Z" fill="white" stroke="#001820" stroke-linecap="round" stroke-linejoin="round"/>
<path d="M511.34 438.032C511.34 438.032 511.727 438.204 512.373 440.112C513.018 442.02 511.985 445.692 511.985 445.692" stroke="#001820" stroke-linecap="round" stroke-linejoin="round"/>
<path d="M528.755 334.267C528.755 334.267 524.366 344.537 524.868 345.871C525.37 347.205 540.977 374.875 540.977 374.875L526.245 418.223L539.155 426.342C539.155 426.342 564.315 371.361 565.161 369.984C566.007 368.607 546.628 315.591 546.628 315.591C546.628 315.591 545.438 307.988 542.325 307.644C539.416 307.184 536.541 306.532 533.718 305.693" fill="#E97943"/>
<path d="M528.755 334.267C528.755 334.267 524.366 344.537 524.868 345.871C525.37 347.205 540.977 374.875 540.977 374.875L526.245 418.223L539.155 426.342C539.155 426.342 564.315 371.361 565.161 369.984C566.007 368.607 546.628 315.591 546.628 315.591C546.628 315.591 545.438 307.988 542.325 307.644C539.416 307.184 536.541 306.532 533.718 305.693" stroke="#001820" stroke-linecap="round" stroke-linejoin="round"/>
<path d="M295.334 643.842C295.334 643.842 308.56 651.287 312.691 652.449C317.308 653.689 322.005 654.609 326.748 655.203C328.67 655.203 330.047 656.021 330.047 657.957C329.865 659.858 328.98 661.622 327.566 662.906C326.748 663.465 306.638 667.596 301.402 667.596C296.166 667.596 279.083 673.649 274.679 673.104C270.275 672.559 268.626 671.182 268.066 668.973C267.507 666.764 268.898 656.852 268.898 656.852L295.334 643.842Z" fill="white" stroke="#001820" stroke-linecap="round" stroke-linejoin="round"/>
<path d="M327.566 662.848C328.98 661.565 329.865 659.801 330.048 657.9C330.078 657.461 329.989 657.023 329.789 656.631C329.59 656.239 329.287 655.909 328.914 655.676C327.48 657.857 325.443 660.582 323.722 660.926C320.953 661.471 293.14 666.434 285.968 666.979L267.98 668.414C267.98 668.615 268.009 668.787 268.067 668.93C268.626 671.139 270.276 672.516 274.679 673.061C279.083 673.607 296.195 667.553 301.402 667.553C306.609 667.553 326.749 663.408 327.566 662.848Z" fill="white" stroke="#001820" stroke-linecap="round" stroke-linejoin="round"/>
<path d="M164.487 653.195C164.382 655.435 164.664 657.677 165.319 659.822C166.424 663.68 171.057 670.02 170.827 673.32C170.598 676.619 169.178 677.723 160.356 677.178C151.534 676.633 142.182 676.633 138.84 670.006C135.498 663.379 143.258 651.545 143.258 651.545L164.487 653.195Z" fill="white" stroke="#001820" stroke-linecap="round" stroke-linejoin="round"/>
<path d="M170.827 673.32C170.855 672.634 170.758 671.948 170.54 671.297C169.23 672.931 167.377 674.04 165.319 674.424C160.628 675.256 150.975 675.256 144.936 672.215C142.564 671.001 140.316 669.559 138.223 667.912C138.34 668.632 138.557 669.332 138.868 669.992C142.182 676.604 151.548 676.604 160.384 677.164C169.22 677.723 170.554 676.633 170.827 673.32Z" fill="white" stroke="#001820" stroke-linecap="round" stroke-linejoin="round"/>
<path d="M150.876 434.174L162.136 555.181L145.769 633.027L142.484 641.002V651.789C142.484 651.789 143.417 651.316 148.581 653.668C153.745 656.021 162.652 653.668 162.652 653.668L164.531 653.195L169.222 639.596L170.154 629.742C170.154 629.742 198.757 550.017 200.162 543.921C201.568 537.825 204.58 485.942 204.58 485.942L203.949 472.831L246.982 550.462L265.27 638.621L262.402 643.785L268.498 658.789L296.168 644.258L294.289 634.877L290.071 626.902C290.071 626.902 280.69 529.821 279.285 527.927C277.879 526.034 238.016 434.131 238.016 434.131L232.853 413.489L150.876 434.174Z" fill="#001820" stroke="#001820" stroke-linecap="round" stroke-linejoin="round"/>
<path d="M232.464 297.818L243.939 329.59L200.434 303.771L215.739 353.976C215.739 353.976 270.72 356.844 272.154 353.014C273.187 350.26 256.146 313.009 246.55 292.41L232.464 297.818Z" fill="white" stroke="#001820" stroke-linecap="round" stroke-linejoin="round"/>
<path d="M235.809 305.306L250.081 300.472" stroke="#001820" stroke-linecap="round" stroke-linejoin="round"/>
<path d="M129.617 315.246L94.7031 347.765L141.092 414.221C141.092 414.221 143.473 430.473 146.83 433.83C147.693 434.866 148.801 435.671 150.053 436.172C151.305 436.672 152.662 436.853 154.002 436.698C155.436 436.698 227.157 420.432 232.407 418.524C237.657 416.617 239.106 412.787 238.145 408.957C237.184 405.127 226.669 390.797 226.669 390.797L200.377 303.771H168.346L140.131 310.47L129.617 315.246Z" fill="white" stroke="#001820" stroke-linecap="round" stroke-linejoin="round"/>
<path d="M153.156 328.156L165.707 337.48L173.955 418.883L190.092 430L196.547 412.069L169.652 336.404L167.859 316.681L158.894 313.453L153.156 328.156Z" fill="#E97943" stroke="#001820" stroke-linecap="round" stroke-linejoin="round"/>
<path d="M134.005 298.033C131.541 300.222 129.855 303.152 129.2 306.382C128.196 311.689 127.68 316.752 127.68 316.752L144.333 340.449C144.333 340.449 153.944 327.797 154.69 327.037C155.504 326.455 156.433 326.054 157.415 325.861C159.746 324.438 161.954 322.821 164.013 321.027C165.061 319.707 167.083 317.427 173.653 318.947C180.222 320.468 185.042 321.988 185.042 321.988C185.042 321.988 177.196 306.052 172.907 301.505C168.618 296.957 161.518 295.939 158.233 295.939C154.948 295.939 140.532 298.98 140.532 298.98L134.005 298.033Z" fill="white" stroke="#001820" stroke-linecap="round" stroke-linejoin="round"/>
<path d="M148.235 243.296C148.235 243.296 161.417 258.673 164.013 258.673C166.61 258.673 173.237 257.784 173.237 260.868C173.291 262.519 172.987 264.163 172.347 265.687C172.347 265.687 178.085 281.939 179.376 286.773C180.667 291.607 168.833 294.246 168.833 294.246L163.095 295.996C163.095 295.996 165.735 317.082 163.985 321.027C162.235 324.972 157.386 325.861 157.386 325.861L134.622 300.902L134.192 295.164C134.192 295.164 110.036 273.648 110.467 270.564C110.897 267.48 148.235 243.296 148.235 243.296Z" fill="white" stroke="#001820" stroke-linecap="round" stroke-linejoin="round"/>
<path d="M156.697 260.624C157.529 261.728 157.816 262.919 157.357 263.263C156.898 263.607 155.922 262.976 155.019 261.829C154.115 260.681 153.9 259.548 154.359 259.204C154.818 258.859 155.879 259.519 156.697 260.624Z" fill="#001820"/>
<path d="M149.426 258.271C150.302 257.291 151.409 256.546 152.646 256.102C153.884 255.659 155.213 255.532 156.512 255.732" fill="#001820"/>
<path d="M149.426 258.271C150.302 257.291 151.409 256.546 152.646 256.102C153.884 255.659 155.213 255.532 156.512 255.732" stroke="#001820" stroke-width="2" stroke-linecap="round" stroke-linejoin="round"/>
<path d="M175.217 276.216L171.43 277.994" stroke="#001820" stroke-linecap="round" stroke-linejoin="round"/>
<path d="M172.392 265.687C172.392 265.687 161.562 273.433 161.06 276.216C160.558 278.999 162.079 286.587 162.079 286.587C162.079 286.587 152.712 285.324 150.187 285.324C147.663 285.324 135.528 272.171 136.79 270.65C138.052 269.13 142.857 264.339 142.097 261.8C141.337 259.261 134.509 258.271 139.314 253.968C144.12 249.665 165.363 242.077 166.368 237.53C167.372 232.983 152.21 232.222 149.427 235.005C148.069 236.445 146.542 237.716 144.88 238.792C144.88 238.792 146.4 228.751 137.034 232.724C126.077 237.592 117.206 246.194 112.003 256.995C106.696 268.628 103.153 269.388 109.479 275.456C115.804 281.523 129.704 294.935 132.429 295.437C135.155 295.939 136.733 297.962 136.733 295.939C136.733 293.917 131.167 286.587 132.429 283.546C133.692 280.505 134.71 278.999 137.235 282.283C139.759 285.568 143.804 292.912 148.366 295.193C152.927 297.474 164.546 295.695 164.546 295.695C164.546 295.695 179.708 292.167 181.759 288.624C183.81 285.081 180.482 279.515 179.22 278.755C177.958 277.995 176.954 278.253 176.437 280.533C175.921 282.814 172.134 285.081 171.13 282.556C170.126 280.031 168.103 275.47 169.609 274.71C171.115 273.949 174.673 272.945 174.673 269.904C174.673 266.863 174.128 265.286 172.392 265.687Z" fill="#001820" stroke="#001820" stroke-linecap="round" stroke-linejoin="round"/>
<path d="M139.573 282.04C139.573 282.04 134.265 276.474 130.464 276.718C126.663 276.962 125.157 280.261 129.46 285.568C133.763 290.876 139.056 291.134 140.577 289.369C142.097 287.605 140.577 284.306 140.577 284.306" fill="white"/>
<path d="M139.573 282.04C139.573 282.04 134.265 276.474 130.464 276.718C126.663 276.962 125.157 280.261 129.46 285.568C133.763 290.876 139.056 291.134 140.577 289.369C142.097 287.605 140.577 284.306 140.577 284.306" stroke="#001820" stroke-linecap="round" stroke-linejoin="round"/>
<path d="M215.654 294.447L95.2344 462.116" stroke="#001820" stroke-width="14" stroke-linecap="round" stroke-linejoin="round"/>
<path d="M279.47 205.614L215.652 294.447" stroke="#001820" stroke-width="8" stroke-linecap="round" stroke-linejoin="round"/>
<path d="M339.99 21.191C319.28 21.191 299.035 27.3323 281.815 38.8382C264.595 50.3441 251.174 66.698 243.248 85.8317C235.323 104.965 233.249 126.02 237.289 146.332C241.33 166.644 251.303 185.302 265.947 199.946C280.591 214.59 299.249 224.563 319.561 228.604C339.874 232.644 360.928 230.57 380.061 222.645C399.195 214.72 415.549 201.298 427.055 184.078C438.561 166.859 444.702 146.614 444.702 125.903C444.702 98.1319 433.67 71.4979 414.033 51.8605C394.395 32.2231 367.761 21.191 339.99 21.191ZM339.99 216.272C322.117 216.272 304.645 210.972 289.784 201.042C274.923 191.112 263.34 176.998 256.5 160.486C249.661 143.973 247.871 125.803 251.358 108.273C254.845 90.7437 263.452 74.6416 276.09 62.0034C288.728 49.3652 304.83 40.7584 322.36 37.2715C339.89 33.7847 358.06 35.5743 374.572 42.414C391.085 49.2538 405.198 60.8365 415.128 75.6975C425.058 90.5584 430.358 108.03 430.358 125.903C430.358 149.87 420.837 172.856 403.89 189.803C386.942 206.751 363.957 216.272 339.99 216.272Z" fill="#001820" stroke="#001820" stroke-linecap="round" stroke-linejoin="round"/>
<path d="M232.467 297.818L246.495 292.41C242.766 284.435 240.17 278.956 240.17 278.956C240.17 278.956 252.979 264.611 252.979 261.743C252.979 258.874 248.676 250.267 245.319 248.345C241.963 246.423 237.2 254.083 236.239 256.478C235.278 258.874 237.674 269.861 237.674 269.861L227.633 284.32L232.467 297.818Z" fill="white" stroke="#001820" stroke-linecap="round" stroke-linejoin="round"/>
<path d="M237.742 254.771L242.103 268.068" stroke="#001820" stroke-linecap="round" stroke-linejoin="round"/>
<path d="M240.641 250.167L246.694 264.683" stroke="#001820" stroke-linecap="round" stroke-linejoin="round"/>
<path d="M244.27 247.987L250.81 262.503" stroke="#001820" stroke-linecap="round" stroke-linejoin="round"/>
<path d="M94.8047 347.535C94.8047 347.535 101.79 446.883 104.975 448.676C108.159 450.469 118.516 443.411 118.516 443.411L127.94 395.201L94.8047 347.535Z" fill="white" stroke="#001820" stroke-linecap="round" stroke-linejoin="round"/>
<path d="M106.536 420.948L149.167 382.779L148.938 371.691L158.979 363.17C158.979 363.17 161.087 357.146 162.249 359.67C163.411 362.195 164.214 363.744 163.052 365.537C161.891 367.33 158.577 371.275 158.577 371.275L172.835 368.492C172.835 368.492 176.421 370.816 175.274 372.609C174.11 374.009 172.676 375.161 171.057 375.994L169.163 380.125C169.163 380.125 168.116 385.289 166.438 387.512C164.759 389.736 156.311 392.188 156.311 392.188C156.311 392.188 125.256 438.836 121.254 444.645C117.252 450.454 110.725 457.454 105.977 456.938C101.229 456.422 101.301 430 101.301 430" fill="white"/>
<path d="M106.536 420.948L149.167 382.779L148.938 371.691L158.979 363.17C158.979 363.17 161.087 357.146 162.249 359.67C163.411 362.195 164.214 363.744 163.052 365.537C161.891 367.33 158.577 371.275 158.577 371.275L172.835 368.492C172.835 368.492 176.421 370.816 175.274 372.609C174.11 374.009 172.676 375.161 171.057 375.994L169.163 380.125C169.163 380.125 168.116 385.289 166.438 387.512C164.759 389.736 156.311 392.188 156.311 392.188C156.311 392.188 125.256 438.836 121.254 444.645C117.252 450.454 110.725 457.454 105.977 456.938C101.229 456.422 101.301 430 101.301 430" stroke="#001820" stroke-linecap="round" stroke-linejoin="round"/>
<path d="M172.849 368.521L158.591 371.303C158.591 371.303 161.904 367.33 163.066 365.566C164.228 363.801 163.425 362.238 162.263 359.699C161.101 357.16 158.992 363.199 158.992 363.199L148.951 371.719L149.181 382.807L143.027 388.33L153.068 397.209L156.382 392.246C156.382 392.246 164.816 389.793 166.509 387.57C168.201 385.346 169.234 380.182 169.234 380.182L171.128 376.051C172.747 375.218 174.181 374.067 175.345 372.666C176.435 370.844 172.849 368.521 172.849 368.521Z" fill="white" stroke="#001820" stroke-linecap="round" stroke-linejoin="round"/>
<path d="M137.98 393.279L149.04 402.617" stroke="#001820" stroke-linecap="round" stroke-linejoin="round"/>
</svg>
