<svg width="27" height="24" viewBox="0 0 27 24" fill="none" xmlns="http://www.w3.org/2000/svg">
<path d="M19.0716 0.599609C22.9674 0.599609 26.1549 3.13544 26.1549 6.26628C26.1549 9.39711 22.9674 11.9329 19.0716 11.9329C18.1933 11.9329 17.3504 11.8054 16.5712 11.5788C14.5029 13.3496 11.9883 13.3496 11.9883 13.3496C13.6387 11.6992 13.9008 10.5871 13.9362 10.1621C12.732 9.14919 11.9883 7.77503 11.9883 6.26628C11.9883 3.13544 15.1758 0.599609 19.0716 0.599609ZM22.6133 6.97461V5.55794H21.1966V6.97461H22.6133ZM19.7799 6.97461V5.55794H18.3633V6.97461H19.7799ZM16.9466 6.97461V5.55794H15.5299V6.97461H16.9466Z" fill="white"/>
<path d="M17.01 18.38C15.78 18.38 14.59 18.18 13.48 17.82C13.3061 17.7611 13.1191 17.7523 12.9405 17.7948C12.7618 17.8372 12.5988 17.9291 12.47 18.06L10.9 20.03C8.07 18.68 5.42 16.13 4.01 13.2L5.96 11.54C6.23 11.26 6.31 10.87 6.2 10.52C5.83 9.41 5.64 8.22 5.64 6.99C5.64 6.45 5.19 6 4.65 6H1.19C0.65 6 0 6.24 0 6.99C0 16.28 7.73 24 17.01 24C17.72 24 18 23.37 18 22.82V19.37C18 18.83 17.55 18.38 17.01 18.38Z" fill="white"/>
</svg>
