<svg width="177" height="21" viewBox="0 0 177 21" fill="none" xmlns="http://www.w3.org/2000/svg">
<path d="M7.1017 16V9.73C7.1017 9.158 7.06504 8.65933 6.9917 8.234C6.93304 7.794 6.8157 7.43467 6.6397 7.156C6.4637 6.86267 6.2217 6.64267 5.9137 6.496C5.62037 6.34933 5.2317 6.276 4.7477 6.276C4.05837 6.276 3.43504 6.50333 2.8777 6.958C2.32037 7.398 1.96104 7.97 1.7997 8.674V16H0.0397033V0.599999H1.7997V6.232H1.8877C2.26904 5.77733 2.7237 5.418 3.2517 5.154C3.79437 4.87533 4.4617 4.736 5.2537 4.736C5.8697 4.736 6.40504 4.80933 6.8597 4.956C7.31437 5.088 7.68837 5.33 7.9817 5.682C8.2897 6.034 8.5097 6.51067 8.6417 7.112C8.78837 7.69867 8.8617 8.44667 8.8617 9.356V16H7.1017ZM17.263 6.694C16.823 6.54733 16.405 6.474 16.009 6.474C15.3783 6.474 14.8796 6.65 14.513 7.002C14.1463 7.33933 13.919 7.772 13.831 8.3V16H12.071V5H13.303L13.633 6.342H13.721C13.9996 5.84333 14.3296 5.462 14.711 5.198C15.107 4.91933 15.6056 4.78 16.207 4.78C16.6323 4.78 17.109 4.85333 17.637 5L17.263 6.694ZM33.4075 5.198H34.1555L33.0335 11.512C32.9602 11.8933 32.9015 12.238 32.8575 12.546C32.8282 12.8393 32.8135 13.1033 32.8135 13.338C32.8135 13.7047 32.8722 13.976 32.9895 14.152C33.1215 14.3133 33.3415 14.394 33.6495 14.394C34.1482 14.394 34.6395 14.262 35.1235 13.998C35.6222 13.734 36.0622 13.36 36.4435 12.876C36.8248 12.392 37.1328 11.8127 37.3675 11.138C37.6168 10.4487 37.7415 9.67867 37.7415 8.828C37.7415 7.69867 37.5508 6.70133 37.1695 5.836C36.7882 4.97067 36.2529 4.24467 35.5635 3.658C34.8742 3.05667 34.0528 2.602 33.0995 2.294C32.1462 1.986 31.0975 1.832 29.9535 1.832C28.7655 1.832 27.6435 2.052 26.5875 2.492C25.5462 2.932 24.6368 3.54067 23.8595 4.318C23.0968 5.09533 22.4882 6.02667 22.0335 7.112C21.5935 8.19733 21.3735 9.378 21.3735 10.654C21.3735 11.9593 21.5715 13.1253 21.9675 14.152C22.3782 15.1787 22.9575 16.044 23.7055 16.748C24.4535 17.452 25.3482 17.9873 26.3895 18.354C27.4308 18.7207 28.5895 18.904 29.8655 18.904C30.2908 18.904 30.7749 18.8527 31.3175 18.75C31.8602 18.662 32.3515 18.508 32.7915 18.288L33.2315 19.696C32.5715 19.9747 31.9629 20.158 31.4055 20.246C30.8482 20.3487 30.2468 20.4 29.6015 20.4C28.2375 20.4 26.9542 20.1947 25.7515 19.784C24.5635 19.3733 23.5222 18.7647 22.6275 17.958C21.7475 17.1513 21.0508 16.154 20.5375 14.966C20.0242 13.7633 19.7675 12.3773 19.7675 10.808C19.7675 9.20933 20.0388 7.76467 20.5815 6.474C21.1388 5.18333 21.8868 4.08333 22.8255 3.174C23.7642 2.26467 24.8568 1.568 26.1035 1.084C27.3502 0.585333 28.6702 0.336 30.0635 0.336C31.3835 0.336 32.6082 0.533999 33.7375 0.929999C34.8668 1.31133 35.8422 1.86867 36.6635 2.602C37.4995 3.32067 38.1522 4.208 38.6215 5.264C39.1055 6.30533 39.3475 7.49333 39.3475 8.828C39.3475 9.76667 39.1862 10.6687 38.8635 11.534C38.5408 12.3847 38.1008 13.1327 37.5435 13.778C37.0008 14.4233 36.3628 14.944 35.6295 15.34C34.8962 15.7213 34.1188 15.912 33.2975 15.912C32.6815 15.912 32.1902 15.78 31.8235 15.516C31.4568 15.252 31.2735 14.7607 31.2735 14.042C31.2735 13.91 31.2808 13.7707 31.2955 13.624C31.3102 13.4627 31.3322 13.294 31.3615 13.118H31.2735C31.0682 13.4553 30.8262 13.7927 30.5475 14.13C30.2688 14.4527 29.9535 14.746 29.6015 15.01C29.2642 15.274 28.8975 15.494 28.5015 15.67C28.1202 15.8313 27.7168 15.912 27.2915 15.912C26.9395 15.912 26.6022 15.8387 26.2795 15.692C25.9568 15.5307 25.6782 15.3033 25.4435 15.01C25.2088 14.7167 25.0182 14.372 24.8715 13.976C24.7395 13.5653 24.6735 13.1033 24.6735 12.59C24.6735 11.6513 24.8275 10.7273 25.1355 9.818C25.4435 8.90867 25.8542 8.102 26.3675 7.398C26.8955 6.694 27.5042 6.12933 28.1935 5.704C28.8975 5.264 29.6382 5.044 30.4155 5.044C30.9582 5.044 31.3908 5.12467 31.7135 5.286C32.0362 5.44733 32.3515 5.64533 32.6595 5.88L33.4075 5.198ZM32.1535 7.354C31.9042 7.06067 31.6548 6.86267 31.4055 6.76C31.1562 6.64267 30.8408 6.584 30.4595 6.584C29.8875 6.584 29.3522 6.76 28.8535 7.112C28.3548 7.44933 27.9222 7.89667 27.5555 8.454C27.2035 8.99667 26.9175 9.61267 26.6975 10.302C26.4922 10.9767 26.3895 11.644 26.3895 12.304C26.3895 12.876 26.5068 13.3673 26.7415 13.778C26.9762 14.174 27.4015 14.372 28.0175 14.372C28.3108 14.372 28.6115 14.2767 28.9195 14.086C29.2422 13.8953 29.5575 13.6387 29.8655 13.316C30.1735 12.9787 30.4668 12.6047 30.7455 12.194C31.0242 11.7833 31.2735 11.3653 31.4935 10.94L32.1535 7.354ZM50.4675 15.274C50.0275 15.5967 49.5068 15.8387 48.9055 16C48.3042 16.176 47.6735 16.264 47.0135 16.264C46.1628 16.264 45.4442 16.132 44.8575 15.868C44.2708 15.5893 43.7868 15.2007 43.4055 14.702C43.0388 14.1887 42.7675 13.58 42.5915 12.876C42.4302 12.1573 42.3495 11.3653 42.3495 10.5C42.3495 8.63733 42.7602 7.21467 43.5815 6.232C44.4028 5.23467 45.5835 4.736 47.1235 4.736C47.8275 4.736 48.4215 4.79467 48.9055 4.912C49.4042 5.01467 49.8515 5.16867 50.2475 5.374L49.7415 6.892C49.4042 6.70133 49.0302 6.55467 48.6195 6.452C48.2088 6.33467 47.7688 6.276 47.2995 6.276C45.2168 6.276 44.1755 7.684 44.1755 10.5C44.1755 11.0573 44.2268 11.5927 44.3295 12.106C44.4468 12.6047 44.6302 13.052 44.8795 13.448C45.1435 13.8293 45.4808 14.1373 45.8915 14.372C46.3168 14.6067 46.8375 14.724 47.4535 14.724C47.9815 14.724 48.4508 14.6433 48.8615 14.482C49.2868 14.3207 49.6315 14.1373 49.8955 13.932L50.4675 15.274ZM52.7153 5.814C53.2726 5.47667 53.9179 5.22733 54.6513 5.066C55.3993 4.90467 56.1766 4.824 56.9833 4.824C57.7459 4.824 58.3546 4.92667 58.8093 5.132C59.2786 5.33733 59.6306 5.60867 59.8653 5.946C60.1146 6.26867 60.2759 6.628 60.3493 7.024C60.4373 7.42 60.4813 7.816 60.4813 8.212C60.4813 9.092 60.4593 9.95 60.4153 10.786C60.3713 11.622 60.3493 12.414 60.3493 13.162C60.3493 13.7047 60.3713 14.218 60.4153 14.702C60.4593 15.186 60.5399 15.6333 60.6573 16.044H59.3593L58.8973 14.504H58.7873C58.6553 14.7093 58.4866 14.9147 58.2813 15.12C58.0906 15.3107 57.8559 15.4867 57.5773 15.648C57.2986 15.7947 56.9759 15.9193 56.6093 16.022C56.2426 16.1247 55.8246 16.176 55.3553 16.176C54.8859 16.176 54.4459 16.1027 54.0353 15.956C53.6393 15.8093 53.2946 15.604 53.0013 15.34C52.7079 15.0613 52.4733 14.7313 52.2973 14.35C52.1359 13.9687 52.0553 13.536 52.0553 13.052C52.0553 12.4067 52.1873 11.8713 52.4513 11.446C52.7153 11.006 53.0819 10.6613 53.5513 10.412C54.0353 10.148 54.6073 9.96467 55.2673 9.862C55.9419 9.74467 56.6826 9.686 57.4893 9.686C57.6946 9.686 57.8926 9.686 58.0833 9.686C58.2886 9.686 58.4939 9.70067 58.6993 9.73C58.7433 9.29 58.7653 8.894 58.7653 8.542C58.7653 7.73533 58.6039 7.17067 58.2813 6.848C57.9586 6.52533 57.3719 6.364 56.5213 6.364C56.2719 6.364 56.0006 6.386 55.7073 6.43C55.4286 6.45933 55.1353 6.51067 54.8273 6.584C54.5339 6.64267 54.2479 6.72333 53.9693 6.826C53.7053 6.914 53.4706 7.01667 53.2653 7.134L52.7153 5.814ZM55.8393 14.636C56.2499 14.636 56.6166 14.5847 56.9393 14.482C57.2619 14.3647 57.5406 14.2253 57.7753 14.064C58.0099 13.888 58.2006 13.6973 58.3473 13.492C58.5086 13.2867 58.6259 13.0887 58.6993 12.898V11.072C58.4939 11.0573 58.2813 11.05 58.0613 11.05C57.8559 11.0353 57.6506 11.028 57.4453 11.028C56.9906 11.028 56.5433 11.0573 56.1033 11.116C55.6779 11.16 55.2966 11.2553 54.9593 11.402C54.6366 11.534 54.3726 11.7247 54.1673 11.974C53.9766 12.2087 53.8813 12.5093 53.8813 12.876C53.8813 13.3893 54.0646 13.8147 54.4313 14.152C54.7979 14.4747 55.2673 14.636 55.8393 14.636ZM63.8053 5H65.0153L65.3453 6.32H65.4333C65.7707 5.80667 66.2033 5.418 66.7313 5.154C67.274 4.87533 67.89 4.736 68.5793 4.736C70.046 4.736 71.1387 5.16867 71.8573 6.034C72.576 6.89933 72.9353 8.31467 72.9353 10.28C72.9353 11.204 72.8107 12.04 72.5613 12.788C72.3267 13.5213 71.9893 14.1447 71.5493 14.658C71.1093 15.1713 70.574 15.5673 69.9433 15.846C69.3273 16.1247 68.638 16.264 67.8753 16.264C67.3327 16.264 66.9 16.2273 66.5773 16.154C66.2693 16.0953 65.932 15.9853 65.5653 15.824V20.4H63.8053V5ZM68.2493 6.276C67.5013 6.276 66.9073 6.474 66.4673 6.87C66.042 7.25133 65.7413 7.838 65.5653 8.63V14.086C65.8293 14.2913 66.13 14.4527 66.4673 14.57C66.8047 14.6727 67.252 14.724 67.8093 14.724C68.8213 14.724 69.6207 14.35 70.2073 13.602C70.8087 12.8393 71.1093 11.7247 71.1093 10.258C71.1093 9.65667 71.058 9.114 70.9553 8.63C70.8527 8.13133 70.684 7.71333 70.4493 7.376C70.2293 7.024 69.936 6.75267 69.5693 6.562C69.2173 6.37133 68.7773 6.276 68.2493 6.276ZM75.5317 5.814C76.089 5.47667 76.7343 5.22733 77.4677 5.066C78.2157 4.90467 78.993 4.824 79.7997 4.824C80.5623 4.824 81.171 4.92667 81.6257 5.132C82.095 5.33733 82.447 5.60867 82.6817 5.946C82.931 6.26867 83.0923 6.628 83.1657 7.024C83.2537 7.42 83.2977 7.816 83.2977 8.212C83.2977 9.092 83.2757 9.95 83.2317 10.786C83.1877 11.622 83.1657 12.414 83.1657 13.162C83.1657 13.7047 83.1877 14.218 83.2317 14.702C83.2757 15.186 83.3563 15.6333 83.4737 16.044H82.1757L81.7137 14.504H81.6037C81.4717 14.7093 81.303 14.9147 81.0977 15.12C80.907 15.3107 80.6723 15.4867 80.3937 15.648C80.115 15.7947 79.7923 15.9193 79.4257 16.022C79.059 16.1247 78.641 16.176 78.1717 16.176C77.7023 16.176 77.2623 16.1027 76.8517 15.956C76.4557 15.8093 76.111 15.604 75.8177 15.34C75.5243 15.0613 75.2897 14.7313 75.1137 14.35C74.9523 13.9687 74.8717 13.536 74.8717 13.052C74.8717 12.4067 75.0037 11.8713 75.2677 11.446C75.5317 11.006 75.8983 10.6613 76.3677 10.412C76.8517 10.148 77.4237 9.96467 78.0837 9.862C78.7583 9.74467 79.499 9.686 80.3057 9.686C80.511 9.686 80.709 9.686 80.8997 9.686C81.105 9.686 81.3103 9.70067 81.5157 9.73C81.5597 9.29 81.5817 8.894 81.5817 8.542C81.5817 7.73533 81.4203 7.17067 81.0977 6.848C80.775 6.52533 80.1883 6.364 79.3377 6.364C79.0883 6.364 78.817 6.386 78.5237 6.43C78.245 6.45933 77.9517 6.51067 77.6437 6.584C77.3503 6.64267 77.0643 6.72333 76.7857 6.826C76.5217 6.914 76.287 7.01667 76.0817 7.134L75.5317 5.814ZM78.6557 14.636C79.0663 14.636 79.433 14.5847 79.7557 14.482C80.0783 14.3647 80.357 14.2253 80.5917 14.064C80.8263 13.888 81.017 13.6973 81.1637 13.492C81.325 13.2867 81.4423 13.0887 81.5157 12.898V11.072C81.3103 11.0573 81.0977 11.05 80.8777 11.05C80.6723 11.0353 80.467 11.028 80.2617 11.028C79.807 11.028 79.3597 11.0573 78.9197 11.116C78.4943 11.16 78.113 11.2553 77.7757 11.402C77.453 11.534 77.189 11.7247 76.9837 11.974C76.793 12.2087 76.6977 12.5093 76.6977 12.876C76.6977 13.3893 76.881 13.8147 77.2477 14.152C77.6143 14.4747 78.0837 14.636 78.6557 14.636ZM93.6837 16V9.73C93.6837 8.586 93.5151 7.728 93.1777 7.156C92.8551 6.56933 92.2537 6.276 91.3737 6.276C90.5964 6.276 89.9511 6.48867 89.4377 6.914C88.9391 7.32467 88.5871 7.84533 88.3817 8.476V16H86.6217V5H87.8537L88.1837 6.342H88.2717C88.6237 5.87267 89.0931 5.49133 89.6797 5.198C90.2811 4.89 90.9924 4.736 91.8137 4.736C92.4151 4.736 92.9431 4.80933 93.3977 4.956C93.8524 5.088 94.2264 5.33 94.5197 5.682C94.8277 6.034 95.0551 6.51067 95.2017 7.112C95.3631 7.69867 95.4437 8.44667 95.4437 9.356V16H93.6837ZM99.027 5H100.787V16H99.027V5ZM98.653 1.656C98.653 1.31867 98.763 1.03267 98.983 0.797999C99.2177 0.548666 99.511 0.424 99.863 0.424C100.215 0.424 100.516 0.548666 100.765 0.797999C101.014 1.03267 101.139 1.31867 101.139 1.656C101.139 1.99333 101.014 2.272 100.765 2.492C100.516 2.712 100.215 2.822 99.863 2.822C99.511 2.822 99.2177 2.712 98.983 2.492C98.763 2.272 98.653 1.99333 98.653 1.656ZM112.042 15.274C111.602 15.5967 111.081 15.8387 110.48 16C109.878 16.176 109.248 16.264 108.588 16.264C107.737 16.264 107.018 16.132 106.432 15.868C105.845 15.5893 105.361 15.2007 104.98 14.702C104.613 14.1887 104.342 13.58 104.166 12.876C104.004 12.1573 103.924 11.3653 103.924 10.5C103.924 8.63733 104.334 7.21467 105.156 6.232C105.977 5.23467 107.158 4.736 108.698 4.736C109.402 4.736 109.996 4.79467 110.48 4.912C110.978 5.01467 111.426 5.16867 111.822 5.374L111.316 6.892C110.978 6.70133 110.604 6.55467 110.194 6.452C109.783 6.33467 109.343 6.276 108.874 6.276C106.791 6.276 105.75 7.684 105.75 10.5C105.75 11.0573 105.801 11.5927 105.904 12.106C106.021 12.6047 106.204 13.052 106.454 13.448C106.718 13.8293 107.055 14.1373 107.466 14.372C107.891 14.6067 108.412 14.724 109.028 14.724C109.556 14.724 110.025 14.6433 110.436 14.482C110.861 14.3207 111.206 14.1373 111.47 13.932L112.042 15.274ZM116.049 5V11.27C116.049 11.842 116.079 12.348 116.137 12.788C116.211 13.2133 116.328 13.5727 116.489 13.866C116.651 14.1447 116.871 14.3573 117.149 14.504C117.428 14.6507 117.78 14.724 118.205 14.724C118.601 14.724 118.953 14.6653 119.261 14.548C119.569 14.416 119.841 14.24 120.075 14.02C120.325 13.8 120.537 13.5507 120.713 13.272C120.904 12.9787 121.058 12.6707 121.175 12.348V5H122.935V12.876C122.935 13.404 122.95 13.954 122.979 14.526C123.023 15.0833 123.089 15.5747 123.177 16H121.967L121.527 14.262H121.417C121.08 14.834 120.625 15.3107 120.053 15.692C119.481 16.0733 118.755 16.264 117.875 16.264C117.289 16.264 116.768 16.1907 116.313 16.044C115.873 15.912 115.499 15.67 115.191 15.318C114.898 14.966 114.671 14.4967 114.509 13.91C114.363 13.3087 114.289 12.5533 114.289 11.644V5H116.049ZM131.165 13.008C131.165 12.568 131.033 12.2233 130.769 11.974C130.505 11.7247 130.175 11.5193 129.779 11.358C129.398 11.182 128.972 11.0207 128.503 10.874C128.048 10.7127 127.623 10.5147 127.227 10.28C126.846 10.0307 126.523 9.71533 126.259 9.334C125.995 8.95267 125.863 8.43933 125.863 7.794C125.863 6.738 126.164 5.968 126.765 5.484C127.366 4.98533 128.202 4.736 129.273 4.736C130.065 4.736 130.725 4.80933 131.253 4.956C131.796 5.088 132.265 5.24933 132.661 5.44L132.243 6.892C131.906 6.73067 131.495 6.59133 131.011 6.474C130.542 6.342 130.036 6.276 129.493 6.276C128.848 6.276 128.371 6.386 128.063 6.606C127.77 6.826 127.623 7.20733 127.623 7.75C127.623 8.13133 127.755 8.432 128.019 8.652C128.283 8.85733 128.606 9.048 128.987 9.224C129.383 9.38533 129.808 9.54667 130.263 9.708C130.732 9.86933 131.158 10.082 131.539 10.346C131.935 10.61 132.265 10.9473 132.529 11.358C132.793 11.754 132.925 12.282 132.925 12.942C132.925 13.4113 132.844 13.8513 132.683 14.262C132.536 14.6727 132.302 15.0247 131.979 15.318C131.656 15.6113 131.253 15.8387 130.769 16C130.3 16.176 129.742 16.264 129.097 16.264C128.261 16.264 127.55 16.1833 126.963 16.022C126.376 15.8607 125.885 15.67 125.489 15.45L126.017 13.954C126.354 14.1447 126.794 14.3207 127.337 14.482C127.88 14.6433 128.43 14.724 128.987 14.724C129.618 14.724 130.138 14.5993 130.549 14.35C130.96 14.1007 131.165 13.6533 131.165 13.008ZM134.969 14.988C134.969 14.592 135.079 14.284 135.299 14.064C135.533 13.8293 135.841 13.712 136.223 13.712C136.619 13.712 136.934 13.8293 137.169 14.064C137.403 14.284 137.521 14.592 137.521 14.988C137.521 15.3693 137.403 15.6773 137.169 15.912C136.934 16.1467 136.619 16.264 136.223 16.264C135.841 16.264 135.533 16.1467 135.299 15.912C135.079 15.6773 134.969 15.3693 134.969 14.988ZM147.792 15.274C147.352 15.5967 146.831 15.8387 146.23 16C145.628 16.176 144.998 16.264 144.338 16.264C143.487 16.264 142.768 16.132 142.182 15.868C141.595 15.5893 141.111 15.2007 140.73 14.702C140.363 14.1887 140.092 13.58 139.916 12.876C139.754 12.1573 139.674 11.3653 139.674 10.5C139.674 8.63733 140.084 7.21467 140.906 6.232C141.727 5.23467 142.908 4.736 144.448 4.736C145.152 4.736 145.746 4.79467 146.23 4.912C146.728 5.01467 147.176 5.16867 147.572 5.374L147.066 6.892C146.728 6.70133 146.354 6.55467 145.944 6.452C145.533 6.33467 145.093 6.276 144.624 6.276C142.541 6.276 141.5 7.684 141.5 10.5C141.5 11.0573 141.551 11.5927 141.654 12.106C141.771 12.6047 141.954 13.052 142.204 13.448C142.468 13.8293 142.805 14.1373 143.216 14.372C143.641 14.6067 144.162 14.724 144.778 14.724C145.306 14.724 145.775 14.6433 146.186 14.482C146.611 14.3207 146.956 14.1373 147.22 13.932L147.792 15.274ZM149.084 10.5C149.084 8.63733 149.495 7.21467 150.316 6.232C151.152 5.23467 152.347 4.736 153.902 4.736C154.723 4.736 155.435 4.87533 156.036 5.154C156.652 5.418 157.158 5.80667 157.554 6.32C157.95 6.81867 158.243 7.42733 158.434 8.146C158.625 8.85 158.72 9.63467 158.72 10.5C158.72 12.3627 158.302 13.7927 157.466 14.79C156.645 15.7727 155.457 16.264 153.902 16.264C153.081 16.264 152.362 16.132 151.746 15.868C151.145 15.5893 150.646 15.2007 150.25 14.702C149.854 14.1887 149.561 13.58 149.37 12.876C149.179 12.1573 149.084 11.3653 149.084 10.5ZM150.91 10.5C150.91 11.0573 150.961 11.5927 151.064 12.106C151.181 12.6193 151.357 13.0667 151.592 13.448C151.827 13.8293 152.135 14.1373 152.516 14.372C152.897 14.6067 153.359 14.724 153.902 14.724C155.897 14.7387 156.894 13.3307 156.894 10.5C156.894 9.928 156.835 9.38533 156.718 8.872C156.615 8.35867 156.447 7.91133 156.212 7.53C155.977 7.14867 155.669 6.848 155.288 6.628C154.907 6.39333 154.445 6.276 153.902 6.276C151.907 6.26133 150.91 7.66933 150.91 10.5ZM167.941 16V9.774C167.941 9.18733 167.911 8.68133 167.853 8.256C167.809 7.816 167.713 7.44933 167.567 7.156C167.42 6.86267 167.207 6.64267 166.929 6.496C166.665 6.34933 166.313 6.276 165.873 6.276C165.198 6.276 164.633 6.48133 164.179 6.892C163.739 7.30267 163.431 7.816 163.255 8.432V16H161.495V5H162.727L163.057 6.342H163.145C163.541 5.87267 163.995 5.49133 164.509 5.198C165.037 4.89 165.719 4.736 166.555 4.736C167.259 4.736 167.831 4.87533 168.271 5.154C168.725 5.418 169.077 5.88733 169.327 6.562C169.664 5.99 170.126 5.54267 170.713 5.22C171.314 4.89733 171.989 4.736 172.737 4.736C173.353 4.736 173.873 4.80933 174.299 4.956C174.724 5.088 175.076 5.33 175.355 5.682C175.633 6.034 175.831 6.51067 175.949 7.112C176.081 7.71333 176.147 8.476 176.147 9.4V16H174.387V9.378C174.387 8.85 174.357 8.39533 174.299 8.014C174.255 7.618 174.152 7.29533 173.991 7.046C173.844 6.782 173.631 6.59133 173.353 6.474C173.089 6.342 172.737 6.276 172.297 6.276C171.563 6.276 170.991 6.48133 170.581 6.892C170.17 7.30267 169.877 7.88933 169.701 8.652V16H167.941Z" fill="white"/>
</svg>
