<svg width="206" height="21" viewBox="0 0 206 21" fill="none" xmlns="http://www.w3.org/2000/svg">
<path d="M6.61896 13.008C6.61896 12.568 6.48696 12.2233 6.22296 11.974C5.95896 11.7247 5.62896 11.5193 5.23296 11.358C4.85163 11.182 4.42629 11.0207 3.95696 10.874C3.50229 10.7127 3.07696 10.5147 2.68096 10.28C2.29963 10.0307 1.97696 9.71533 1.71296 9.334C1.44896 8.95267 1.31696 8.43933 1.31696 7.794C1.31696 6.738 1.61763 5.968 2.21896 5.484C2.82029 4.98533 3.65629 4.736 4.72696 4.736C5.51896 4.736 6.17896 4.80933 6.70696 4.956C7.24963 5.088 7.71896 5.24933 8.11496 5.44L7.69696 6.892C7.35963 6.73067 6.94896 6.59133 6.46496 6.474C5.99563 6.342 5.48963 6.276 4.94696 6.276C4.30163 6.276 3.82496 6.386 3.51696 6.606C3.22363 6.826 3.07696 7.20733 3.07696 7.75C3.07696 8.13133 3.20896 8.432 3.47296 8.652C3.73696 8.85733 4.05963 9.048 4.44096 9.224C4.83696 9.38533 5.26229 9.54667 5.71696 9.708C6.18629 9.86933 6.61163 10.082 6.99296 10.346C7.38896 10.61 7.71896 10.9473 7.98296 11.358C8.24696 11.754 8.37896 12.282 8.37896 12.942C8.37896 13.4113 8.29829 13.8513 8.13696 14.262C7.99029 14.6727 7.75563 15.0247 7.43296 15.318C7.11029 15.6113 6.70696 15.8387 6.22296 16C5.75363 16.176 5.19629 16.264 4.55096 16.264C3.71496 16.264 3.00363 16.1833 2.41696 16.022C1.83029 15.8607 1.33896 15.67 0.942961 15.45L1.47096 13.954C1.80829 14.1447 2.24829 14.3207 2.79096 14.482C3.33363 14.6433 3.88363 14.724 4.44096 14.724C5.07163 14.724 5.59229 14.5993 6.00296 14.35C6.41363 14.1007 6.61896 13.6533 6.61896 13.008ZM10.8627 5.814C11.4201 5.47667 12.0654 5.22733 12.7987 5.066C13.5467 4.90467 14.3241 4.824 15.1307 4.824C15.8934 4.824 16.5021 4.92667 16.9567 5.132C17.4261 5.33733 17.7781 5.60867 18.0127 5.946C18.2621 6.26867 18.4234 6.628 18.4967 7.024C18.5847 7.42 18.6287 7.816 18.6287 8.212C18.6287 9.092 18.6067 9.95 18.5627 10.786C18.5187 11.622 18.4967 12.414 18.4967 13.162C18.4967 13.7047 18.5187 14.218 18.5627 14.702C18.6067 15.186 18.6874 15.6333 18.8047 16.044H17.5067L17.0447 14.504H16.9347C16.8027 14.7093 16.6341 14.9147 16.4287 15.12C16.2381 15.3107 16.0034 15.4867 15.7247 15.648C15.4461 15.7947 15.1234 15.9193 14.7567 16.022C14.3901 16.1247 13.9721 16.176 13.5027 16.176C13.0334 16.176 12.5934 16.1027 12.1827 15.956C11.7867 15.8093 11.4421 15.604 11.1487 15.34C10.8554 15.0613 10.6207 14.7313 10.4447 14.35C10.2834 13.9687 10.2027 13.536 10.2027 13.052C10.2027 12.4067 10.3347 11.8713 10.5987 11.446C10.8627 11.006 11.2294 10.6613 11.6987 10.412C12.1827 10.148 12.7547 9.96467 13.4147 9.862C14.0894 9.74467 14.8301 9.686 15.6367 9.686C15.8421 9.686 16.0401 9.686 16.2307 9.686C16.4361 9.686 16.6414 9.70067 16.8467 9.73C16.8907 9.29 16.9127 8.894 16.9127 8.542C16.9127 7.73533 16.7514 7.17067 16.4287 6.848C16.1061 6.52533 15.5194 6.364 14.6687 6.364C14.4194 6.364 14.1481 6.386 13.8547 6.43C13.5761 6.45933 13.2827 6.51067 12.9747 6.584C12.6814 6.64267 12.3954 6.72333 12.1167 6.826C11.8527 6.914 11.6181 7.01667 11.4127 7.134L10.8627 5.814ZM13.9867 14.636C14.3974 14.636 14.7641 14.5847 15.0867 14.482C15.4094 14.3647 15.6881 14.2253 15.9227 14.064C16.1574 13.888 16.3481 13.6973 16.4947 13.492C16.6561 13.2867 16.7734 13.0887 16.8467 12.898V11.072C16.6414 11.0573 16.4287 11.05 16.2087 11.05C16.0034 11.0353 15.7981 11.028 15.5927 11.028C15.1381 11.028 14.6907 11.0573 14.2507 11.116C13.8254 11.16 13.4441 11.2553 13.1067 11.402C12.7841 11.534 12.5201 11.7247 12.3147 11.974C12.1241 12.2087 12.0287 12.5093 12.0287 12.876C12.0287 13.3893 12.2121 13.8147 12.5787 14.152C12.9454 14.4747 13.4147 14.636 13.9867 14.636ZM23.9108 13.294C23.9108 13.8073 23.9988 14.174 24.1748 14.394C24.3508 14.614 24.6001 14.724 24.9228 14.724C25.1135 14.724 25.3188 14.7093 25.5388 14.68C25.7588 14.6507 26.0081 14.5847 26.2868 14.482L26.4848 15.868C26.2501 15.9853 25.9201 16.0807 25.4948 16.154C25.0841 16.2273 24.7248 16.264 24.4168 16.264C23.7568 16.264 23.2141 16.0807 22.7888 15.714C22.3635 15.3327 22.1508 14.6947 22.1508 13.8V0.599999H23.9108V13.294ZM36.4066 15.12C35.9666 15.472 35.4093 15.7507 34.7346 15.956C34.0746 16.1613 33.3706 16.264 32.6226 16.264C31.7866 16.264 31.0606 16.132 30.4446 15.868C29.8286 15.5893 29.3226 15.2007 28.9266 14.702C28.5306 14.1887 28.2373 13.58 28.0466 12.876C27.856 12.172 27.7606 11.38 27.7606 10.5C27.7606 8.62267 28.1786 7.19267 29.0146 6.21C29.8506 5.22733 31.046 4.736 32.6006 4.736C33.0993 4.736 33.598 4.79467 34.0966 4.912C34.5953 5.01467 35.0426 5.22 35.4386 5.528C35.8346 5.836 36.1573 6.276 36.4066 6.848C36.656 7.40533 36.7806 8.146 36.7806 9.07C36.7806 9.554 36.7366 10.0893 36.6486 10.676H29.5866C29.5866 11.3213 29.6526 11.8933 29.7846 12.392C29.9166 12.8907 30.122 13.316 30.4006 13.668C30.6793 14.0053 31.0386 14.2693 31.4786 14.46C31.9333 14.636 32.4833 14.724 33.1286 14.724C33.6273 14.724 34.126 14.636 34.6246 14.46C35.1233 14.284 35.4973 14.0787 35.7466 13.844L36.4066 15.12ZM32.6226 6.276C31.7573 6.276 31.0606 6.50333 30.5326 6.958C30.0193 7.41267 29.7113 8.19 29.6086 9.29H35.0646C35.0646 8.17533 34.852 7.398 34.4266 6.958C34.0013 6.50333 33.4 6.276 32.6226 6.276ZM44.3885 13.008C44.3885 12.568 44.2565 12.2233 43.9925 11.974C43.7285 11.7247 43.3985 11.5193 43.0025 11.358C42.6212 11.182 42.1958 11.0207 41.7265 10.874C41.2718 10.7127 40.8465 10.5147 40.4505 10.28C40.0692 10.0307 39.7465 9.71533 39.4825 9.334C39.2185 8.95267 39.0865 8.43933 39.0865 7.794C39.0865 6.738 39.3872 5.968 39.9885 5.484C40.5898 4.98533 41.4258 4.736 42.4965 4.736C43.2885 4.736 43.9485 4.80933 44.4765 4.956C45.0192 5.088 45.4885 5.24933 45.8845 5.44L45.4665 6.892C45.1292 6.73067 44.7185 6.59133 44.2345 6.474C43.7652 6.342 43.2592 6.276 42.7165 6.276C42.0712 6.276 41.5945 6.386 41.2865 6.606C40.9932 6.826 40.8465 7.20733 40.8465 7.75C40.8465 8.13133 40.9785 8.432 41.2425 8.652C41.5065 8.85733 41.8292 9.048 42.2105 9.224C42.6065 9.38533 43.0318 9.54667 43.4865 9.708C43.9558 9.86933 44.3812 10.082 44.7625 10.346C45.1585 10.61 45.4885 10.9473 45.7525 11.358C46.0165 11.754 46.1485 12.282 46.1485 12.942C46.1485 13.4113 46.0678 13.8513 45.9065 14.262C45.7598 14.6727 45.5252 15.0247 45.2025 15.318C44.8798 15.6113 44.4765 15.8387 43.9925 16C43.5232 16.176 42.9658 16.264 42.3205 16.264C41.4845 16.264 40.7732 16.1833 40.1865 16.022C39.5998 15.8607 39.1085 15.67 38.7125 15.45L39.2405 13.954C39.5778 14.1447 40.0178 14.3207 40.5605 14.482C41.1032 14.6433 41.6532 14.724 42.2105 14.724C42.8412 14.724 43.3618 14.5993 43.7725 14.35C44.1832 14.1007 44.3885 13.6533 44.3885 13.008ZM62.6683 5.198H63.4163L62.2943 11.512C62.2209 11.8933 62.1623 12.238 62.1183 12.546C62.0889 12.8393 62.0743 13.1033 62.0743 13.338C62.0743 13.7047 62.1329 13.976 62.2503 14.152C62.3823 14.3133 62.6023 14.394 62.9103 14.394C63.4089 14.394 63.9003 14.262 64.3843 13.998C64.8829 13.734 65.3229 13.36 65.7043 12.876C66.0856 12.392 66.3936 11.8127 66.6283 11.138C66.8776 10.4487 67.0023 9.67867 67.0023 8.828C67.0023 7.69867 66.8116 6.70133 66.4303 5.836C66.0489 4.97067 65.5136 4.24467 64.8243 3.658C64.1349 3.05667 63.3136 2.602 62.3603 2.294C61.4069 1.986 60.3583 1.832 59.2143 1.832C58.0263 1.832 56.9043 2.052 55.8483 2.492C54.8069 2.932 53.8976 3.54067 53.1203 4.318C52.3576 5.09533 51.7489 6.02667 51.2943 7.112C50.8543 8.19733 50.6343 9.378 50.6343 10.654C50.6343 11.9593 50.8323 13.1253 51.2283 14.152C51.6389 15.1787 52.2183 16.044 52.9663 16.748C53.7143 17.452 54.6089 17.9873 55.6503 18.354C56.6916 18.7207 57.8503 18.904 59.1263 18.904C59.5516 18.904 60.0356 18.8527 60.5783 18.75C61.1209 18.662 61.6123 18.508 62.0523 18.288L62.4923 19.696C61.8323 19.9747 61.2236 20.158 60.6663 20.246C60.1089 20.3487 59.5076 20.4 58.8623 20.4C57.4983 20.4 56.2149 20.1947 55.0123 19.784C53.8243 19.3733 52.7829 18.7647 51.8883 17.958C51.0083 17.1513 50.3116 16.154 49.7983 14.966C49.2849 13.7633 49.0283 12.3773 49.0283 10.808C49.0283 9.20933 49.2996 7.76467 49.8423 6.474C50.3996 5.18333 51.1476 4.08333 52.0863 3.174C53.0249 2.26467 54.1176 1.568 55.3643 1.084C56.6109 0.585333 57.9309 0.336 59.3243 0.336C60.6443 0.336 61.8689 0.533999 62.9983 0.929999C64.1276 1.31133 65.1029 1.86867 65.9243 2.602C66.7603 3.32067 67.4129 4.208 67.8823 5.264C68.3663 6.30533 68.6083 7.49333 68.6083 8.828C68.6083 9.76667 68.4469 10.6687 68.1243 11.534C67.8016 12.3847 67.3616 13.1327 66.8043 13.778C66.2616 14.4233 65.6236 14.944 64.8903 15.34C64.1569 15.7213 63.3796 15.912 62.5583 15.912C61.9423 15.912 61.4509 15.78 61.0843 15.516C60.7176 15.252 60.5343 14.7607 60.5343 14.042C60.5343 13.91 60.5416 13.7707 60.5563 13.624C60.5709 13.4627 60.5929 13.294 60.6223 13.118H60.5343C60.3289 13.4553 60.0869 13.7927 59.8083 14.13C59.5296 14.4527 59.2143 14.746 58.8623 15.01C58.5249 15.274 58.1583 15.494 57.7623 15.67C57.3809 15.8313 56.9776 15.912 56.5523 15.912C56.2003 15.912 55.8629 15.8387 55.5403 15.692C55.2176 15.5307 54.9389 15.3033 54.7043 15.01C54.4696 14.7167 54.2789 14.372 54.1323 13.976C54.0003 13.5653 53.9343 13.1033 53.9343 12.59C53.9343 11.6513 54.0883 10.7273 54.3963 9.818C54.7043 8.90867 55.1149 8.102 55.6283 7.398C56.1563 6.694 56.7649 6.12933 57.4543 5.704C58.1583 5.264 58.8989 5.044 59.6763 5.044C60.2189 5.044 60.6516 5.12467 60.9743 5.286C61.2969 5.44733 61.6123 5.64533 61.9203 5.88L62.6683 5.198ZM61.4143 7.354C61.1649 7.06067 60.9156 6.86267 60.6663 6.76C60.4169 6.64267 60.1016 6.584 59.7203 6.584C59.1483 6.584 58.6129 6.76 58.1143 7.112C57.6156 7.44933 57.1829 7.89667 56.8163 8.454C56.4643 8.99667 56.1783 9.61267 55.9583 10.302C55.7529 10.9767 55.6503 11.644 55.6503 12.304C55.6503 12.876 55.7676 13.3673 56.0023 13.778C56.2369 14.174 56.6623 14.372 57.2783 14.372C57.5716 14.372 57.8723 14.2767 58.1803 14.086C58.5029 13.8953 58.8183 13.6387 59.1263 13.316C59.4343 12.9787 59.7276 12.6047 60.0063 12.194C60.2849 11.7833 60.5343 11.3653 60.7543 10.94L61.4143 7.354ZM79.7282 15.274C79.2882 15.5967 78.7676 15.8387 78.1662 16C77.5649 16.176 76.9342 16.264 76.2742 16.264C75.4236 16.264 74.7049 16.132 74.1182 15.868C73.5316 15.5893 73.0476 15.2007 72.6662 14.702C72.2996 14.1887 72.0282 13.58 71.8522 12.876C71.6909 12.1573 71.6102 11.3653 71.6102 10.5C71.6102 8.63733 72.0209 7.21467 72.8422 6.232C73.6636 5.23467 74.8442 4.736 76.3842 4.736C77.0882 4.736 77.6822 4.79467 78.1662 4.912C78.6649 5.01467 79.1122 5.16867 79.5082 5.374L79.0022 6.892C78.6649 6.70133 78.2909 6.55467 77.8802 6.452C77.4696 6.33467 77.0296 6.276 76.5602 6.276C74.4776 6.276 73.4362 7.684 73.4362 10.5C73.4362 11.0573 73.4876 11.5927 73.5902 12.106C73.7076 12.6047 73.8909 13.052 74.1402 13.448C74.4042 13.8293 74.7416 14.1373 75.1522 14.372C75.5776 14.6067 76.0982 14.724 76.7142 14.724C77.2422 14.724 77.7116 14.6433 78.1222 14.482C78.5476 14.3207 78.8922 14.1373 79.1562 13.932L79.7282 15.274ZM81.976 5.814C82.5333 5.47667 83.1787 5.22733 83.912 5.066C84.66 4.90467 85.4373 4.824 86.244 4.824C87.0067 4.824 87.6153 4.92667 88.07 5.132C88.5393 5.33733 88.8913 5.60867 89.126 5.946C89.3753 6.26867 89.5367 6.628 89.61 7.024C89.698 7.42 89.742 7.816 89.742 8.212C89.742 9.092 89.72 9.95 89.676 10.786C89.632 11.622 89.61 12.414 89.61 13.162C89.61 13.7047 89.632 14.218 89.676 14.702C89.72 15.186 89.8007 15.6333 89.918 16.044H88.62L88.158 14.504H88.048C87.916 14.7093 87.7473 14.9147 87.542 15.12C87.3513 15.3107 87.1167 15.4867 86.838 15.648C86.5593 15.7947 86.2367 15.9193 85.87 16.022C85.5033 16.1247 85.0853 16.176 84.616 16.176C84.1467 16.176 83.7067 16.1027 83.296 15.956C82.9 15.8093 82.5553 15.604 82.262 15.34C81.9687 15.0613 81.734 14.7313 81.558 14.35C81.3967 13.9687 81.316 13.536 81.316 13.052C81.316 12.4067 81.448 11.8713 81.712 11.446C81.976 11.006 82.3427 10.6613 82.812 10.412C83.296 10.148 83.868 9.96467 84.528 9.862C85.2027 9.74467 85.9433 9.686 86.75 9.686C86.9553 9.686 87.1533 9.686 87.344 9.686C87.5493 9.686 87.7547 9.70067 87.96 9.73C88.004 9.29 88.026 8.894 88.026 8.542C88.026 7.73533 87.8647 7.17067 87.542 6.848C87.2193 6.52533 86.6327 6.364 85.782 6.364C85.5327 6.364 85.2613 6.386 84.968 6.43C84.6893 6.45933 84.396 6.51067 84.088 6.584C83.7947 6.64267 83.5087 6.72333 83.23 6.826C82.966 6.914 82.7313 7.01667 82.526 7.134L81.976 5.814ZM85.1 14.636C85.5107 14.636 85.8773 14.5847 86.2 14.482C86.5227 14.3647 86.8013 14.2253 87.036 14.064C87.2707 13.888 87.4613 13.6973 87.608 13.492C87.7693 13.2867 87.8867 13.0887 87.96 12.898V11.072C87.7547 11.0573 87.542 11.05 87.322 11.05C87.1167 11.0353 86.9113 11.028 86.706 11.028C86.2513 11.028 85.804 11.0573 85.364 11.116C84.9387 11.16 84.5573 11.2553 84.22 11.402C83.8973 11.534 83.6333 11.7247 83.428 11.974C83.2373 12.2087 83.142 12.5093 83.142 12.876C83.142 13.3893 83.3253 13.8147 83.692 14.152C84.0587 14.4747 84.528 14.636 85.1 14.636ZM93.0661 5H94.2761L94.6061 6.32H94.6941C95.0314 5.80667 95.4641 5.418 95.9921 5.154C96.5347 4.87533 97.1507 4.736 97.8401 4.736C99.3067 4.736 100.399 5.16867 101.118 6.034C101.837 6.89933 102.196 8.31467 102.196 10.28C102.196 11.204 102.071 12.04 101.822 12.788C101.587 13.5213 101.25 14.1447 100.81 14.658C100.37 15.1713 99.8347 15.5673 99.2041 15.846C98.5881 16.1247 97.8987 16.264 97.1361 16.264C96.5934 16.264 96.1607 16.2273 95.8381 16.154C95.5301 16.0953 95.1927 15.9853 94.8261 15.824V20.4H93.0661V5ZM97.5101 6.276C96.7621 6.276 96.1681 6.474 95.7281 6.87C95.3027 7.25133 95.0021 7.838 94.8261 8.63V14.086C95.0901 14.2913 95.3907 14.4527 95.7281 14.57C96.0654 14.6727 96.5127 14.724 97.0701 14.724C98.0821 14.724 98.8814 14.35 99.4681 13.602C100.069 12.8393 100.37 11.7247 100.37 10.258C100.37 9.65667 100.319 9.114 100.216 8.63C100.113 8.13133 99.9447 7.71333 99.7101 7.376C99.4901 7.024 99.1967 6.75267 98.8301 6.562C98.4781 6.37133 98.0381 6.276 97.5101 6.276ZM104.792 5.814C105.35 5.47667 105.995 5.22733 106.728 5.066C107.476 4.90467 108.254 4.824 109.06 4.824C109.823 4.824 110.432 4.92667 110.886 5.132C111.356 5.33733 111.708 5.60867 111.942 5.946C112.192 6.26867 112.353 6.628 112.426 7.024C112.514 7.42 112.558 7.816 112.558 8.212C112.558 9.092 112.536 9.95 112.492 10.786C112.448 11.622 112.426 12.414 112.426 13.162C112.426 13.7047 112.448 14.218 112.492 14.702C112.536 15.186 112.617 15.6333 112.734 16.044H111.436L110.974 14.504H110.864C110.732 14.7093 110.564 14.9147 110.358 15.12C110.168 15.3107 109.933 15.4867 109.654 15.648C109.376 15.7947 109.053 15.9193 108.686 16.022C108.32 16.1247 107.902 16.176 107.432 16.176C106.963 16.176 106.523 16.1027 106.112 15.956C105.716 15.8093 105.372 15.604 105.078 15.34C104.785 15.0613 104.55 14.7313 104.374 14.35C104.213 13.9687 104.132 13.536 104.132 13.052C104.132 12.4067 104.264 11.8713 104.528 11.446C104.792 11.006 105.159 10.6613 105.628 10.412C106.112 10.148 106.684 9.96467 107.344 9.862C108.019 9.74467 108.76 9.686 109.566 9.686C109.772 9.686 109.97 9.686 110.16 9.686C110.366 9.686 110.571 9.70067 110.776 9.73C110.82 9.29 110.842 8.894 110.842 8.542C110.842 7.73533 110.681 7.17067 110.358 6.848C110.036 6.52533 109.449 6.364 108.598 6.364C108.349 6.364 108.078 6.386 107.784 6.43C107.506 6.45933 107.212 6.51067 106.904 6.584C106.611 6.64267 106.325 6.72333 106.046 6.826C105.782 6.914 105.548 7.01667 105.342 7.134L104.792 5.814ZM107.916 14.636C108.327 14.636 108.694 14.5847 109.016 14.482C109.339 14.3647 109.618 14.2253 109.852 14.064C110.087 13.888 110.278 13.6973 110.424 13.492C110.586 13.2867 110.703 13.0887 110.776 12.898V11.072C110.571 11.0573 110.358 11.05 110.138 11.05C109.933 11.0353 109.728 11.028 109.522 11.028C109.068 11.028 108.62 11.0573 108.18 11.116C107.755 11.16 107.374 11.2553 107.036 11.402C106.714 11.534 106.45 11.7247 106.244 11.974C106.054 12.2087 105.958 12.5093 105.958 12.876C105.958 13.3893 106.142 13.8147 106.508 14.152C106.875 14.4747 107.344 14.636 107.916 14.636ZM122.944 16V9.73C122.944 8.586 122.776 7.728 122.438 7.156C122.116 6.56933 121.514 6.276 120.634 6.276C119.857 6.276 119.212 6.48867 118.698 6.914C118.2 7.32467 117.848 7.84533 117.642 8.476V16H115.882V5H117.114L117.444 6.342H117.532C117.884 5.87267 118.354 5.49133 118.94 5.198C119.542 4.89 120.253 4.736 121.074 4.736C121.676 4.736 122.204 4.80933 122.658 4.956C123.113 5.088 123.487 5.33 123.78 5.682C124.088 6.034 124.316 6.51067 124.462 7.112C124.624 7.69867 124.704 8.44667 124.704 9.356V16H122.944ZM128.288 5H130.048V16H128.288V5ZM127.914 1.656C127.914 1.31867 128.024 1.03267 128.244 0.797999C128.478 0.548666 128.772 0.424 129.124 0.424C129.476 0.424 129.776 0.548666 130.026 0.797999C130.275 1.03267 130.4 1.31867 130.4 1.656C130.4 1.99333 130.275 2.272 130.026 2.492C129.776 2.712 129.476 2.822 129.124 2.822C128.772 2.822 128.478 2.712 128.244 2.492C128.024 2.272 127.914 1.99333 127.914 1.656ZM141.302 15.274C140.862 15.5967 140.342 15.8387 139.74 16C139.139 16.176 138.508 16.264 137.848 16.264C136.998 16.264 136.279 16.132 135.692 15.868C135.106 15.5893 134.622 15.2007 134.24 14.702C133.874 14.1887 133.602 13.58 133.426 12.876C133.265 12.1573 133.184 11.3653 133.184 10.5C133.184 8.63733 133.595 7.21467 134.416 6.232C135.238 5.23467 136.418 4.736 137.958 4.736C138.662 4.736 139.256 4.79467 139.74 4.912C140.239 5.01467 140.686 5.16867 141.082 5.374L140.576 6.892C140.239 6.70133 139.865 6.55467 139.454 6.452C139.044 6.33467 138.604 6.276 138.134 6.276C136.052 6.276 135.01 7.684 135.01 10.5C135.01 11.0573 135.062 11.5927 135.164 12.106C135.282 12.6047 135.465 13.052 135.714 13.448C135.978 13.8293 136.316 14.1373 136.726 14.372C137.152 14.6067 137.672 14.724 138.288 14.724C138.816 14.724 139.286 14.6433 139.696 14.482C140.122 14.3207 140.466 14.1373 140.73 13.932L141.302 15.274ZM145.31 5V11.27C145.31 11.842 145.34 12.348 145.398 12.788C145.472 13.2133 145.589 13.5727 145.75 13.866C145.912 14.1447 146.132 14.3573 146.41 14.504C146.689 14.6507 147.041 14.724 147.466 14.724C147.862 14.724 148.214 14.6653 148.522 14.548C148.83 14.416 149.102 14.24 149.336 14.02C149.586 13.8 149.798 13.5507 149.974 13.272C150.165 12.9787 150.319 12.6707 150.436 12.348V5H152.196V12.876C152.196 13.404 152.211 13.954 152.24 14.526C152.284 15.0833 152.35 15.5747 152.438 16H151.228L150.788 14.262H150.678C150.341 14.834 149.886 15.3107 149.314 15.692C148.742 16.0733 148.016 16.264 147.136 16.264C146.55 16.264 146.029 16.1907 145.574 16.044C145.134 15.912 144.76 15.67 144.452 15.318C144.159 14.966 143.932 14.4967 143.77 13.91C143.624 13.3087 143.55 12.5533 143.55 11.644V5H145.31ZM160.426 13.008C160.426 12.568 160.294 12.2233 160.03 11.974C159.766 11.7247 159.436 11.5193 159.04 11.358C158.658 11.182 158.233 11.0207 157.764 10.874C157.309 10.7127 156.884 10.5147 156.488 10.28C156.106 10.0307 155.784 9.71533 155.52 9.334C155.256 8.95267 155.124 8.43933 155.124 7.794C155.124 6.738 155.424 5.968 156.026 5.484C156.627 4.98533 157.463 4.736 158.534 4.736C159.326 4.736 159.986 4.80933 160.514 4.956C161.056 5.088 161.526 5.24933 161.922 5.44L161.504 6.892C161.166 6.73067 160.756 6.59133 160.272 6.474C159.802 6.342 159.296 6.276 158.754 6.276C158.108 6.276 157.632 6.386 157.324 6.606C157.03 6.826 156.884 7.20733 156.884 7.75C156.884 8.13133 157.016 8.432 157.28 8.652C157.544 8.85733 157.866 9.048 158.248 9.224C158.644 9.38533 159.069 9.54667 159.524 9.708C159.993 9.86933 160.418 10.082 160.8 10.346C161.196 10.61 161.526 10.9473 161.79 11.358C162.054 11.754 162.186 12.282 162.186 12.942C162.186 13.4113 162.105 13.8513 161.944 14.262C161.797 14.6727 161.562 15.0247 161.24 15.318C160.917 15.6113 160.514 15.8387 160.03 16C159.56 16.176 159.003 16.264 158.358 16.264C157.522 16.264 156.81 16.1833 156.224 16.022C155.637 15.8607 155.146 15.67 154.75 15.45L155.278 13.954C155.615 14.1447 156.055 14.3207 156.598 14.482C157.14 14.6433 157.69 14.724 158.248 14.724C158.878 14.724 159.399 14.5993 159.81 14.35C160.22 14.1007 160.426 13.6533 160.426 13.008ZM164.229 14.988C164.229 14.592 164.339 14.284 164.559 14.064C164.794 13.8293 165.102 13.712 165.483 13.712C165.879 13.712 166.195 13.8293 166.429 14.064C166.664 14.284 166.781 14.592 166.781 14.988C166.781 15.3693 166.664 15.6773 166.429 15.912C166.195 16.1467 165.879 16.264 165.483 16.264C165.102 16.264 164.794 16.1467 164.559 15.912C164.339 15.6773 164.229 15.3693 164.229 14.988ZM177.052 15.274C176.612 15.5967 176.092 15.8387 175.49 16C174.889 16.176 174.258 16.264 173.598 16.264C172.748 16.264 172.029 16.132 171.442 15.868C170.856 15.5893 170.372 15.2007 169.99 14.702C169.624 14.1887 169.352 13.58 169.176 12.876C169.015 12.1573 168.934 11.3653 168.934 10.5C168.934 8.63733 169.345 7.21467 170.166 6.232C170.988 5.23467 172.168 4.736 173.708 4.736C174.412 4.736 175.006 4.79467 175.49 4.912C175.989 5.01467 176.436 5.16867 176.832 5.374L176.326 6.892C175.989 6.70133 175.615 6.55467 175.204 6.452C174.794 6.33467 174.354 6.276 173.884 6.276C171.802 6.276 170.76 7.684 170.76 10.5C170.76 11.0573 170.812 11.5927 170.914 12.106C171.032 12.6047 171.215 13.052 171.464 13.448C171.728 13.8293 172.066 14.1373 172.476 14.372C172.902 14.6067 173.422 14.724 174.038 14.724C174.566 14.724 175.036 14.6433 175.446 14.482C175.872 14.3207 176.216 14.1373 176.48 13.932L177.052 15.274ZM178.345 10.5C178.345 8.63733 178.755 7.21467 179.577 6.232C180.413 5.23467 181.608 4.736 183.163 4.736C183.984 4.736 184.695 4.87533 185.297 5.154C185.913 5.418 186.419 5.80667 186.815 6.32C187.211 6.81867 187.504 7.42733 187.695 8.146C187.885 8.85 187.981 9.63467 187.981 10.5C187.981 12.3627 187.563 13.7927 186.727 14.79C185.905 15.7727 184.717 16.264 183.163 16.264C182.341 16.264 181.623 16.132 181.007 15.868C180.405 15.5893 179.907 15.2007 179.511 14.702C179.115 14.1887 178.821 13.58 178.631 12.876C178.44 12.1573 178.345 11.3653 178.345 10.5ZM180.171 10.5C180.171 11.0573 180.222 11.5927 180.325 12.106C180.442 12.6193 180.618 13.0667 180.853 13.448C181.087 13.8293 181.395 14.1373 181.777 14.372C182.158 14.6067 182.62 14.724 183.163 14.724C185.157 14.7387 186.155 13.3307 186.155 10.5C186.155 9.928 186.096 9.38533 185.979 8.872C185.876 8.35867 185.707 7.91133 185.473 7.53C185.238 7.14867 184.93 6.848 184.549 6.628C184.167 6.39333 183.705 6.276 183.163 6.276C181.168 6.26133 180.171 7.66933 180.171 10.5ZM197.202 16V9.774C197.202 9.18733 197.172 8.68133 197.114 8.256C197.07 7.816 196.974 7.44933 196.828 7.156C196.681 6.86267 196.468 6.64267 196.19 6.496C195.926 6.34933 195.574 6.276 195.134 6.276C194.459 6.276 193.894 6.48133 193.44 6.892C193 7.30267 192.692 7.816 192.516 8.432V16H190.756V5H191.988L192.318 6.342H192.406C192.802 5.87267 193.256 5.49133 193.77 5.198C194.298 4.89 194.98 4.736 195.816 4.736C196.52 4.736 197.092 4.87533 197.532 5.154C197.986 5.418 198.338 5.88733 198.588 6.562C198.925 5.99 199.387 5.54267 199.974 5.22C200.575 4.89733 201.25 4.736 201.998 4.736C202.614 4.736 203.134 4.80933 203.56 4.956C203.985 5.088 204.337 5.33 204.616 5.682C204.894 6.034 205.092 6.51067 205.21 7.112C205.342 7.71333 205.408 8.476 205.408 9.4V16H203.648V9.378C203.648 8.85 203.618 8.39533 203.56 8.014C203.516 7.618 203.413 7.29533 203.252 7.046C203.105 6.782 202.892 6.59133 202.614 6.474C202.35 6.342 201.998 6.276 201.558 6.276C200.824 6.276 200.252 6.48133 199.842 6.892C199.431 7.30267 199.138 7.88933 198.962 8.652V16H197.202Z" fill="white"/>
</svg>
