<svg width="194" height="21" viewBox="0 0 194 21" fill="none" xmlns="http://www.w3.org/2000/svg">
<path d="M0.416633 5H2.17663V16H0.416633V5ZM0.042633 1.656C0.042633 1.31867 0.152633 1.03267 0.372633 0.797999C0.6073 0.548666 0.900633 0.424 1.25263 0.424C1.60463 0.424 1.9053 0.548666 2.15463 0.797999C2.40397 1.03267 2.52863 1.31867 2.52863 1.656C2.52863 1.99333 2.40397 2.272 2.15463 2.492C1.9053 2.712 1.60463 2.822 1.25263 2.822C0.900633 2.822 0.6073 2.712 0.372633 2.492C0.152633 2.272 0.042633 1.99333 0.042633 1.656ZM12.9914 16V9.73C12.9914 8.586 12.8227 7.728 12.4854 7.156C12.1627 6.56933 11.5614 6.276 10.6814 6.276C9.90402 6.276 9.25869 6.48867 8.74535 6.914C8.24669 7.32467 7.89468 7.84533 7.68935 8.476V16H5.92935V5H7.16135L7.49135 6.342H7.57935C7.93135 5.87267 8.40069 5.49133 8.98735 5.198C9.58868 4.89 10.3 4.736 11.1214 4.736C11.7227 4.736 12.2507 4.80933 12.7054 4.956C13.16 5.088 13.534 5.33 13.8274 5.682C14.1354 6.034 14.3627 6.51067 14.5094 7.112C14.6707 7.69867 14.7514 8.44667 14.7514 9.356V16H12.9914ZM16.7506 5H18.4666V4.384C18.4666 3.70933 18.5179 3.12267 18.6206 2.624C18.7379 2.12533 18.9213 1.722 19.1706 1.414C19.4199 1.09133 19.7426 0.856665 20.1386 0.709999C20.5346 0.548666 21.0259 0.467999 21.6126 0.467999C22.0819 0.467999 22.4926 0.497333 22.8446 0.556C23.2113 0.614666 23.5926 0.724666 23.9886 0.885999L23.5926 2.36C23.2553 2.21333 22.9326 2.118 22.6246 2.074C22.3313 2.03 22.0526 2.008 21.7886 2.008C21.4073 2.008 21.1066 2.06667 20.8866 2.184C20.6813 2.30133 20.5273 2.47733 20.4246 2.712C20.3366 2.932 20.2779 3.21067 20.2486 3.548C20.2339 3.87067 20.2266 4.252 20.2266 4.692V5H23.1526V6.54H20.2266V16H18.4666V6.54H16.7506V5ZM24.1337 10.5C24.1337 8.63733 24.5443 7.21467 25.3657 6.232C26.2017 5.23467 27.397 4.736 28.9517 4.736C29.773 4.736 30.4843 4.87533 31.0857 5.154C31.7017 5.418 32.2077 5.80667 32.6037 6.32C32.9997 6.81867 33.293 7.42733 33.4837 8.146C33.6743 8.85 33.7697 9.63467 33.7697 10.5C33.7697 12.3627 33.3517 13.7927 32.5157 14.79C31.6943 15.7727 30.5063 16.264 28.9517 16.264C28.1303 16.264 27.4117 16.132 26.7957 15.868C26.1943 15.5893 25.6957 15.2007 25.2997 14.702C24.9037 14.1887 24.6103 13.58 24.4197 12.876C24.229 12.1573 24.1337 11.3653 24.1337 10.5ZM25.9597 10.5C25.9597 11.0573 26.011 11.5927 26.1137 12.106C26.231 12.6193 26.407 13.0667 26.6417 13.448C26.8763 13.8293 27.1843 14.1373 27.5657 14.372C27.947 14.6067 28.409 14.724 28.9517 14.724C30.9463 14.7387 31.9437 13.3307 31.9437 10.5C31.9437 9.928 31.885 9.38533 31.7677 8.872C31.665 8.35867 31.4963 7.91133 31.2617 7.53C31.027 7.14867 30.719 6.848 30.3377 6.628C29.9563 6.39333 29.4943 6.276 28.9517 6.276C26.957 6.26133 25.9597 7.66933 25.9597 10.5ZM50.4046 5.198H51.1526L50.0306 11.512C49.9573 11.8933 49.8986 12.238 49.8546 12.546C49.8253 12.8393 49.8106 13.1033 49.8106 13.338C49.8106 13.7047 49.8693 13.976 49.9866 14.152C50.1186 14.3133 50.3386 14.394 50.6466 14.394C51.1453 14.394 51.6366 14.262 52.1206 13.998C52.6193 13.734 53.0593 13.36 53.4406 12.876C53.8219 12.392 54.1299 11.8127 54.3646 11.138C54.6139 10.4487 54.7386 9.67867 54.7386 8.828C54.7386 7.69867 54.5479 6.70133 54.1666 5.836C53.7853 4.97067 53.2499 4.24467 52.5606 3.658C51.8713 3.05667 51.0499 2.602 50.0966 2.294C49.1433 1.986 48.0946 1.832 46.9506 1.832C45.7626 1.832 44.6406 2.052 43.5846 2.492C42.5433 2.932 41.6339 3.54067 40.8566 4.318C40.0939 5.09533 39.4853 6.02667 39.0306 7.112C38.5906 8.19733 38.3706 9.378 38.3706 10.654C38.3706 11.9593 38.5686 13.1253 38.9646 14.152C39.3753 15.1787 39.9546 16.044 40.7026 16.748C41.4506 17.452 42.3453 17.9873 43.3866 18.354C44.4279 18.7207 45.5866 18.904 46.8626 18.904C47.2879 18.904 47.7719 18.8527 48.3146 18.75C48.8573 18.662 49.3486 18.508 49.7886 18.288L50.2286 19.696C49.5686 19.9747 48.9599 20.158 48.4026 20.246C47.8453 20.3487 47.2439 20.4 46.5986 20.4C45.2346 20.4 43.9513 20.1947 42.7486 19.784C41.5606 19.3733 40.5193 18.7647 39.6246 17.958C38.7446 17.1513 38.0479 16.154 37.5346 14.966C37.0213 13.7633 36.7646 12.3773 36.7646 10.808C36.7646 9.20933 37.0359 7.76467 37.5786 6.474C38.1359 5.18333 38.8839 4.08333 39.8226 3.174C40.7613 2.26467 41.8539 1.568 43.1006 1.084C44.3473 0.585333 45.6673 0.336 47.0606 0.336C48.3806 0.336 49.6053 0.533999 50.7346 0.929999C51.8639 1.31133 52.8393 1.86867 53.6606 2.602C54.4966 3.32067 55.1493 4.208 55.6186 5.264C56.1026 6.30533 56.3446 7.49333 56.3446 8.828C56.3446 9.76667 56.1833 10.6687 55.8606 11.534C55.5379 12.3847 55.0979 13.1327 54.5406 13.778C53.9979 14.4233 53.3599 14.944 52.6266 15.34C51.8933 15.7213 51.1159 15.912 50.2946 15.912C49.6786 15.912 49.1873 15.78 48.8206 15.516C48.4539 15.252 48.2706 14.7607 48.2706 14.042C48.2706 13.91 48.2779 13.7707 48.2926 13.624C48.3073 13.4627 48.3293 13.294 48.3586 13.118H48.2706C48.0653 13.4553 47.8233 13.7927 47.5446 14.13C47.2659 14.4527 46.9506 14.746 46.5986 15.01C46.2613 15.274 45.8946 15.494 45.4986 15.67C45.1173 15.8313 44.7139 15.912 44.2886 15.912C43.9366 15.912 43.5993 15.8387 43.2766 15.692C42.9539 15.5307 42.6753 15.3033 42.4406 15.01C42.2059 14.7167 42.0153 14.372 41.8686 13.976C41.7366 13.5653 41.6706 13.1033 41.6706 12.59C41.6706 11.6513 41.8246 10.7273 42.1326 9.818C42.4406 8.90867 42.8513 8.102 43.3646 7.398C43.8926 6.694 44.5013 6.12933 45.1906 5.704C45.8946 5.264 46.6353 5.044 47.4126 5.044C47.9553 5.044 48.3879 5.12467 48.7106 5.286C49.0333 5.44733 49.3486 5.64533 49.6566 5.88L50.4046 5.198ZM49.1506 7.354C48.9013 7.06067 48.6519 6.86267 48.4026 6.76C48.1533 6.64267 47.8379 6.584 47.4566 6.584C46.8846 6.584 46.3493 6.76 45.8506 7.112C45.3519 7.44933 44.9193 7.89667 44.5526 8.454C44.2006 8.99667 43.9146 9.61267 43.6946 10.302C43.4893 10.9767 43.3866 11.644 43.3866 12.304C43.3866 12.876 43.5039 13.3673 43.7386 13.778C43.9733 14.174 44.3986 14.372 45.0146 14.372C45.3079 14.372 45.6086 14.2767 45.9166 14.086C46.2393 13.8953 46.5546 13.6387 46.8626 13.316C47.1706 12.9787 47.4639 12.6047 47.7426 12.194C48.0213 11.7833 48.2706 11.3653 48.4906 10.94L49.1506 7.354ZM67.4646 15.274C67.0246 15.5967 66.5039 15.8387 65.9026 16C65.3012 16.176 64.6706 16.264 64.0106 16.264C63.1599 16.264 62.4412 16.132 61.8546 15.868C61.2679 15.5893 60.7839 15.2007 60.4026 14.702C60.0359 14.1887 59.7646 13.58 59.5886 12.876C59.4272 12.1573 59.3466 11.3653 59.3466 10.5C59.3466 8.63733 59.7572 7.21467 60.5786 6.232C61.3999 5.23467 62.5806 4.736 64.1206 4.736C64.8246 4.736 65.4186 4.79467 65.9026 4.912C66.4012 5.01467 66.8486 5.16867 67.2446 5.374L66.7386 6.892C66.4012 6.70133 66.0272 6.55467 65.6166 6.452C65.2059 6.33467 64.7659 6.276 64.2966 6.276C62.2139 6.276 61.1726 7.684 61.1726 10.5C61.1726 11.0573 61.2239 11.5927 61.3266 12.106C61.4439 12.6047 61.6272 13.052 61.8766 13.448C62.1406 13.8293 62.4779 14.1373 62.8886 14.372C63.3139 14.6067 63.8346 14.724 64.4506 14.724C64.9786 14.724 65.4479 14.6433 65.8586 14.482C66.2839 14.3207 66.6286 14.1373 66.8926 13.932L67.4646 15.274ZM69.7123 5.814C70.2697 5.47667 70.915 5.22733 71.6483 5.066C72.3963 4.90467 73.1737 4.824 73.9803 4.824C74.743 4.824 75.3517 4.92667 75.8063 5.132C76.2757 5.33733 76.6277 5.60867 76.8623 5.946C77.1117 6.26867 77.273 6.628 77.3463 7.024C77.4343 7.42 77.4783 7.816 77.4783 8.212C77.4783 9.092 77.4563 9.95 77.4123 10.786C77.3683 11.622 77.3463 12.414 77.3463 13.162C77.3463 13.7047 77.3683 14.218 77.4123 14.702C77.4563 15.186 77.537 15.6333 77.6543 16.044H76.3563L75.8943 14.504H75.7843C75.6523 14.7093 75.4837 14.9147 75.2783 15.12C75.0877 15.3107 74.853 15.4867 74.5743 15.648C74.2957 15.7947 73.973 15.9193 73.6063 16.022C73.2397 16.1247 72.8217 16.176 72.3523 16.176C71.883 16.176 71.443 16.1027 71.0323 15.956C70.6363 15.8093 70.2917 15.604 69.9983 15.34C69.705 15.0613 69.4703 14.7313 69.2943 14.35C69.133 13.9687 69.0523 13.536 69.0523 13.052C69.0523 12.4067 69.1843 11.8713 69.4483 11.446C69.7123 11.006 70.079 10.6613 70.5483 10.412C71.0323 10.148 71.6043 9.96467 72.2643 9.862C72.939 9.74467 73.6797 9.686 74.4863 9.686C74.6917 9.686 74.8897 9.686 75.0803 9.686C75.2857 9.686 75.491 9.70067 75.6963 9.73C75.7403 9.29 75.7623 8.894 75.7623 8.542C75.7623 7.73533 75.601 7.17067 75.2783 6.848C74.9557 6.52533 74.369 6.364 73.5183 6.364C73.269 6.364 72.9977 6.386 72.7043 6.43C72.4257 6.45933 72.1323 6.51067 71.8243 6.584C71.531 6.64267 71.245 6.72333 70.9663 6.826C70.7023 6.914 70.4677 7.01667 70.2623 7.134L69.7123 5.814ZM72.8363 14.636C73.247 14.636 73.6137 14.5847 73.9363 14.482C74.259 14.3647 74.5377 14.2253 74.7723 14.064C75.007 13.888 75.1977 13.6973 75.3443 13.492C75.5057 13.2867 75.623 13.0887 75.6963 12.898V11.072C75.491 11.0573 75.2783 11.05 75.0583 11.05C74.853 11.0353 74.6477 11.028 74.4423 11.028C73.9877 11.028 73.5403 11.0573 73.1003 11.116C72.675 11.16 72.2937 11.2553 71.9563 11.402C71.6337 11.534 71.3697 11.7247 71.1643 11.974C70.9737 12.2087 70.8783 12.5093 70.8783 12.876C70.8783 13.3893 71.0617 13.8147 71.4283 14.152C71.795 14.4747 72.2643 14.636 72.8363 14.636ZM80.8024 5H82.0124L82.3424 6.32H82.4304C82.7677 5.80667 83.2004 5.418 83.7284 5.154C84.2711 4.87533 84.8871 4.736 85.5764 4.736C87.0431 4.736 88.1357 5.16867 88.8544 6.034C89.5731 6.89933 89.9324 8.31467 89.9324 10.28C89.9324 11.204 89.8077 12.04 89.5584 12.788C89.3237 13.5213 88.9864 14.1447 88.5464 14.658C88.1064 15.1713 87.5711 15.5673 86.9404 15.846C86.3244 16.1247 85.6351 16.264 84.8724 16.264C84.3297 16.264 83.8971 16.2273 83.5744 16.154C83.2664 16.0953 82.9291 15.9853 82.5624 15.824V20.4H80.8024V5ZM85.2464 6.276C84.4984 6.276 83.9044 6.474 83.4644 6.87C83.0391 7.25133 82.7384 7.838 82.5624 8.63V14.086C82.8264 14.2913 83.1271 14.4527 83.4644 14.57C83.8017 14.6727 84.2491 14.724 84.8064 14.724C85.8184 14.724 86.6177 14.35 87.2044 13.602C87.8057 12.8393 88.1064 11.7247 88.1064 10.258C88.1064 9.65667 88.0551 9.114 87.9524 8.63C87.8497 8.13133 87.6811 7.71333 87.4464 7.376C87.2264 7.024 86.9331 6.75267 86.5664 6.562C86.2144 6.37133 85.7744 6.276 85.2464 6.276ZM92.5287 5.814C93.0861 5.47667 93.7314 5.22733 94.4647 5.066C95.2127 4.90467 95.9901 4.824 96.7967 4.824C97.5594 4.824 98.1681 4.92667 98.6227 5.132C99.0921 5.33733 99.4441 5.60867 99.6787 5.946C99.9281 6.26867 100.089 6.628 100.163 7.024C100.251 7.42 100.295 7.816 100.295 8.212C100.295 9.092 100.273 9.95 100.229 10.786C100.185 11.622 100.163 12.414 100.163 13.162C100.163 13.7047 100.185 14.218 100.229 14.702C100.273 15.186 100.353 15.6333 100.471 16.044H99.1727L98.7107 14.504H98.6007C98.4687 14.7093 98.3001 14.9147 98.0947 15.12C97.9041 15.3107 97.6694 15.4867 97.3907 15.648C97.1121 15.7947 96.7894 15.9193 96.4227 16.022C96.0561 16.1247 95.6381 16.176 95.1687 16.176C94.6994 16.176 94.2594 16.1027 93.8487 15.956C93.4527 15.8093 93.1081 15.604 92.8147 15.34C92.5214 15.0613 92.2867 14.7313 92.1107 14.35C91.9494 13.9687 91.8687 13.536 91.8687 13.052C91.8687 12.4067 92.0007 11.8713 92.2647 11.446C92.5287 11.006 92.8954 10.6613 93.3647 10.412C93.8487 10.148 94.4207 9.96467 95.0807 9.862C95.7554 9.74467 96.4961 9.686 97.3027 9.686C97.5081 9.686 97.7061 9.686 97.8967 9.686C98.1021 9.686 98.3074 9.70067 98.5127 9.73C98.5567 9.29 98.5787 8.894 98.5787 8.542C98.5787 7.73533 98.4174 7.17067 98.0947 6.848C97.7721 6.52533 97.1854 6.364 96.3347 6.364C96.0854 6.364 95.8141 6.386 95.5207 6.43C95.2421 6.45933 94.9487 6.51067 94.6407 6.584C94.3474 6.64267 94.0614 6.72333 93.7827 6.826C93.5187 6.914 93.2841 7.01667 93.0787 7.134L92.5287 5.814ZM95.6527 14.636C96.0634 14.636 96.4301 14.5847 96.7527 14.482C97.0754 14.3647 97.3541 14.2253 97.5887 14.064C97.8234 13.888 98.0141 13.6973 98.1607 13.492C98.3221 13.2867 98.4394 13.0887 98.5127 12.898V11.072C98.3074 11.0573 98.0947 11.05 97.8747 11.05C97.6694 11.0353 97.4641 11.028 97.2587 11.028C96.8041 11.028 96.3567 11.0573 95.9167 11.116C95.4914 11.16 95.1101 11.2553 94.7727 11.402C94.4501 11.534 94.1861 11.7247 93.9807 11.974C93.7901 12.2087 93.6947 12.5093 93.6947 12.876C93.6947 13.3893 93.8781 13.8147 94.2447 14.152C94.6114 14.4747 95.0807 14.636 95.6527 14.636ZM110.681 16V9.73C110.681 8.586 110.512 7.728 110.175 7.156C109.852 6.56933 109.251 6.276 108.371 6.276C107.593 6.276 106.948 6.48867 106.435 6.914C105.936 7.32467 105.584 7.84533 105.379 8.476V16H103.619V5H104.851L105.181 6.342H105.269C105.621 5.87267 106.09 5.49133 106.677 5.198C107.278 4.89 107.989 4.736 108.811 4.736C109.412 4.736 109.94 4.80933 110.395 4.956C110.849 5.088 111.223 5.33 111.517 5.682C111.825 6.034 112.052 6.51067 112.199 7.112C112.36 7.69867 112.441 8.44667 112.441 9.356V16H110.681ZM116.024 5H117.784V16H116.024V5ZM115.65 1.656C115.65 1.31867 115.76 1.03267 115.98 0.797999C116.215 0.548666 116.508 0.424 116.86 0.424C117.212 0.424 117.513 0.548666 117.762 0.797999C118.011 1.03267 118.136 1.31867 118.136 1.656C118.136 1.99333 118.011 2.272 117.762 2.492C117.513 2.712 117.212 2.822 116.86 2.822C116.508 2.822 116.215 2.712 115.98 2.492C115.76 2.272 115.65 1.99333 115.65 1.656ZM129.039 15.274C128.599 15.5967 128.078 15.8387 127.477 16C126.875 16.176 126.245 16.264 125.585 16.264C124.734 16.264 124.015 16.132 123.429 15.868C122.842 15.5893 122.358 15.2007 121.977 14.702C121.61 14.1887 121.339 13.58 121.163 12.876C121.001 12.1573 120.921 11.3653 120.921 10.5C120.921 8.63733 121.331 7.21467 122.153 6.232C122.974 5.23467 124.155 4.736 125.695 4.736C126.399 4.736 126.993 4.79467 127.477 4.912C127.975 5.01467 128.423 5.16867 128.819 5.374L128.313 6.892C127.975 6.70133 127.601 6.55467 127.191 6.452C126.78 6.33467 126.34 6.276 125.871 6.276C123.788 6.276 122.747 7.684 122.747 10.5C122.747 11.0573 122.798 11.5927 122.901 12.106C123.018 12.6047 123.201 13.052 123.451 13.448C123.715 13.8293 124.052 14.1373 124.463 14.372C124.888 14.6067 125.409 14.724 126.025 14.724C126.553 14.724 127.022 14.6433 127.433 14.482C127.858 14.3207 128.203 14.1373 128.467 13.932L129.039 15.274ZM133.047 5V11.27C133.047 11.842 133.076 12.348 133.135 12.788C133.208 13.2133 133.325 13.5727 133.487 13.866C133.648 14.1447 133.868 14.3573 134.147 14.504C134.425 14.6507 134.777 14.724 135.203 14.724C135.599 14.724 135.951 14.6653 136.259 14.548C136.567 14.416 136.838 14.24 137.073 14.02C137.322 13.8 137.535 13.5507 137.711 13.272C137.901 12.9787 138.055 12.6707 138.173 12.348V5H139.933V12.876C139.933 13.404 139.947 13.954 139.977 14.526C140.021 15.0833 140.087 15.5747 140.175 16H138.965L138.525 14.262H138.415C138.077 14.834 137.623 15.3107 137.051 15.692C136.479 16.0733 135.753 16.264 134.873 16.264C134.286 16.264 133.765 16.1907 133.311 16.044C132.871 15.912 132.497 15.67 132.189 15.318C131.895 14.966 131.668 14.4967 131.507 13.91C131.36 13.3087 131.287 12.5533 131.287 11.644V5H133.047ZM148.162 13.008C148.162 12.568 148.03 12.2233 147.766 11.974C147.502 11.7247 147.172 11.5193 146.776 11.358C146.395 11.182 145.969 11.0207 145.5 10.874C145.045 10.7127 144.62 10.5147 144.224 10.28C143.843 10.0307 143.52 9.71533 143.256 9.334C142.992 8.95267 142.86 8.43933 142.86 7.794C142.86 6.738 143.161 5.968 143.762 5.484C144.363 4.98533 145.199 4.736 146.27 4.736C147.062 4.736 147.722 4.80933 148.25 4.956C148.793 5.088 149.262 5.24933 149.658 5.44L149.24 6.892C148.903 6.73067 148.492 6.59133 148.008 6.474C147.539 6.342 147.033 6.276 146.49 6.276C145.845 6.276 145.368 6.386 145.06 6.606C144.767 6.826 144.62 7.20733 144.62 7.75C144.62 8.13133 144.752 8.432 145.016 8.652C145.28 8.85733 145.603 9.048 145.984 9.224C146.38 9.38533 146.805 9.54667 147.26 9.708C147.729 9.86933 148.155 10.082 148.536 10.346C148.932 10.61 149.262 10.9473 149.526 11.358C149.79 11.754 149.922 12.282 149.922 12.942C149.922 13.4113 149.841 13.8513 149.68 14.262C149.533 14.6727 149.299 15.0247 148.976 15.318C148.653 15.6113 148.25 15.8387 147.766 16C147.297 16.176 146.739 16.264 146.094 16.264C145.258 16.264 144.547 16.1833 143.96 16.022C143.373 15.8607 142.882 15.67 142.486 15.45L143.014 13.954C143.351 14.1447 143.791 14.3207 144.334 14.482C144.877 14.6433 145.427 14.724 145.984 14.724C146.615 14.724 147.135 14.5993 147.546 14.35C147.957 14.1007 148.162 13.6533 148.162 13.008ZM151.966 14.988C151.966 14.592 152.076 14.284 152.296 14.064C152.53 13.8293 152.838 13.712 153.22 13.712C153.616 13.712 153.931 13.8293 154.166 14.064C154.4 14.284 154.518 14.592 154.518 14.988C154.518 15.3693 154.4 15.6773 154.166 15.912C153.931 16.1467 153.616 16.264 153.22 16.264C152.838 16.264 152.53 16.1467 152.296 15.912C152.076 15.6773 151.966 15.3693 151.966 14.988ZM164.789 15.274C164.349 15.5967 163.828 15.8387 163.227 16C162.625 16.176 161.995 16.264 161.335 16.264C160.484 16.264 159.765 16.132 159.179 15.868C158.592 15.5893 158.108 15.2007 157.727 14.702C157.36 14.1887 157.089 13.58 156.913 12.876C156.751 12.1573 156.671 11.3653 156.671 10.5C156.671 8.63733 157.081 7.21467 157.903 6.232C158.724 5.23467 159.905 4.736 161.445 4.736C162.149 4.736 162.743 4.79467 163.227 4.912C163.725 5.01467 164.173 5.16867 164.569 5.374L164.063 6.892C163.725 6.70133 163.351 6.55467 162.941 6.452C162.53 6.33467 162.09 6.276 161.621 6.276C159.538 6.276 158.497 7.684 158.497 10.5C158.497 11.0573 158.548 11.5927 158.651 12.106C158.768 12.6047 158.951 13.052 159.201 13.448C159.465 13.8293 159.802 14.1373 160.213 14.372C160.638 14.6067 161.159 14.724 161.775 14.724C162.303 14.724 162.772 14.6433 163.183 14.482C163.608 14.3207 163.953 14.1373 164.217 13.932L164.789 15.274ZM166.081 10.5C166.081 8.63733 166.492 7.21467 167.313 6.232C168.149 5.23467 169.344 4.736 170.899 4.736C171.72 4.736 172.432 4.87533 173.033 5.154C173.649 5.418 174.155 5.80667 174.551 6.32C174.947 6.81867 175.24 7.42733 175.431 8.146C175.622 8.85 175.717 9.63467 175.717 10.5C175.717 12.3627 175.299 13.7927 174.463 14.79C173.642 15.7727 172.454 16.264 170.899 16.264C170.078 16.264 169.359 16.132 168.743 15.868C168.142 15.5893 167.643 15.2007 167.247 14.702C166.851 14.1887 166.558 13.58 166.367 12.876C166.176 12.1573 166.081 11.3653 166.081 10.5ZM167.907 10.5C167.907 11.0573 167.958 11.5927 168.061 12.106C168.178 12.6193 168.354 13.0667 168.589 13.448C168.824 13.8293 169.132 14.1373 169.513 14.372C169.894 14.6067 170.356 14.724 170.899 14.724C172.894 14.7387 173.891 13.3307 173.891 10.5C173.891 9.928 173.832 9.38533 173.715 8.872C173.612 8.35867 173.444 7.91133 173.209 7.53C172.974 7.14867 172.666 6.848 172.285 6.628C171.904 6.39333 171.442 6.276 170.899 6.276C168.904 6.26133 167.907 7.66933 167.907 10.5ZM184.938 16V9.774C184.938 9.18733 184.909 8.68133 184.85 8.256C184.806 7.816 184.711 7.44933 184.564 7.156C184.417 6.86267 184.205 6.64267 183.926 6.496C183.662 6.34933 183.31 6.276 182.87 6.276C182.195 6.276 181.631 6.48133 181.176 6.892C180.736 7.30267 180.428 7.816 180.252 8.432V16H178.492V5H179.724L180.054 6.342H180.142C180.538 5.87267 180.993 5.49133 181.506 5.198C182.034 4.89 182.716 4.736 183.552 4.736C184.256 4.736 184.828 4.87533 185.268 5.154C185.723 5.418 186.075 5.88733 186.324 6.562C186.661 5.99 187.123 5.54267 187.71 5.22C188.311 4.89733 188.986 4.736 189.734 4.736C190.35 4.736 190.871 4.80933 191.296 4.956C191.721 5.088 192.073 5.33 192.352 5.682C192.631 6.034 192.829 6.51067 192.946 7.112C193.078 7.71333 193.144 8.476 193.144 9.4V16H191.384V9.378C191.384 8.85 191.355 8.39533 191.296 8.014C191.252 7.618 191.149 7.29533 190.988 7.046C190.841 6.782 190.629 6.59133 190.35 6.474C190.086 6.342 189.734 6.276 189.294 6.276C188.561 6.276 187.989 6.48133 187.578 6.892C187.167 7.30267 186.874 7.88933 186.698 8.652V16H184.938Z" fill="white"/>
</svg>
